<svg width="591" height="593" viewBox="0 0 591 593" fill="none" xmlns="http://www.w3.org/2000/svg">
<g clip-path="url(#clip0_17_52)">
<path d="M445.566 397.221C444.835 400.496 435.913 401.259 425.642 398.972C415.341 396.684 407.602 392.166 408.334 388.891C409.066 385.643 417.987 384.852 428.259 387.14C438.53 389.455 446.298 393.973 445.566 397.221ZM180.209 203C177.479 204.073 177.057 207.378 178.042 210.088C178.942 212.517 181.053 214.578 183.726 213.645C185.753 212.967 186.934 211.894 187.273 210.511C187.638 208.845 186.71 207.208 185.782 206.276C184.993 205.485 183.755 205.513 182.602 206.36C181.617 207.095 180.828 208.394 181.419 209.523C181.813 210.257 182.32 210.456 182.657 210.484C183.558 210.568 184.262 209.693 184.317 209.58C184.486 209.383 184.458 209.071 184.233 208.902C184.036 208.732 183.726 208.76 183.558 208.958C183.361 209.186 182.995 209.523 182.742 209.495C182.573 209.467 182.404 209.241 182.32 209.044C182.01 208.479 182.545 207.659 183.192 207.18C183.727 206.756 184.571 206.474 185.078 206.983C185.866 207.774 186.569 209.101 186.288 210.286C186.063 211.331 185.078 212.149 183.418 212.715C181.364 213.421 179.703 211.727 179 209.749C178.156 207.49 178.437 204.78 180.575 203.933C184.881 202.238 188.849 203.254 190.256 206.389C192.17 210.653 191.635 213.619 188.652 215.51C184.937 217.825 179.14 215.482 179.083 215.453C178.83 215.369 178.548 215.481 178.436 215.735C178.324 215.989 178.436 216.271 178.689 216.384C178.858 216.441 181.531 217.542 184.543 217.542C186.09 217.542 187.75 217.231 189.158 216.357C192.591 214.181 193.267 210.709 191.184 205.994C189.552 202.323 185.021 201.109 180.209 203ZM243.474 191.874C240.772 192.947 240.35 196.251 241.335 198.962C242.236 201.418 244.346 203.452 247.02 202.519C249.046 201.842 250.229 200.769 250.538 199.385C250.932 197.748 249.975 196.082 249.074 195.15C248.286 194.36 247.02 194.387 245.894 195.235C244.909 195.968 244.121 197.268 244.712 198.397C245.106 199.131 245.585 199.329 245.95 199.358C246.823 199.442 247.525 198.567 247.61 198.454C247.779 198.257 247.751 197.946 247.525 197.776C247.329 197.607 247.019 197.635 246.85 197.861C246.654 198.058 246.287 198.397 246.034 198.37C245.838 198.341 245.697 198.115 245.584 197.918C245.303 197.353 245.837 196.534 246.484 196.054C247.019 195.631 247.863 195.349 248.369 195.857C249.158 196.648 249.861 197.975 249.58 199.16C249.326 200.205 248.369 201.024 246.709 201.589C244.655 202.295 242.994 200.601 242.263 198.624C241.446 196.364 241.727 193.654 243.838 192.807C248.144 191.113 252.14 192.128 253.548 195.263C255.462 199.528 254.927 202.492 251.916 204.384C248.229 206.699 242.431 204.356 242.376 204.327C242.123 204.243 241.813 204.355 241.728 204.609C241.616 204.864 241.728 205.146 241.982 205.259C242.15 205.343 244.824 206.416 247.807 206.416C249.383 206.416 251.044 206.105 252.451 205.231C255.884 203.056 256.56 199.584 254.449 194.868C252.817 191.198 248.315 189.982 243.474 191.874ZM284.759 239.71C282.029 240.783 281.607 244.087 282.62 246.797C283.493 249.255 285.604 251.288 288.305 250.384C290.304 249.678 291.485 248.633 291.823 247.221C292.189 245.583 291.26 243.918 290.331 242.986C289.543 242.195 288.305 242.223 287.151 243.07C286.167 243.804 285.406 245.103 285.998 246.233C286.364 246.966 286.871 247.166 287.208 247.193C288.109 247.278 288.812 246.402 288.897 246.318C289.066 246.092 289.009 245.782 288.812 245.612C288.587 245.442 288.277 245.47 288.109 245.696C287.94 245.894 287.573 246.233 287.292 246.205C287.124 246.177 286.955 245.951 286.871 245.753C286.561 245.189 287.096 244.369 287.743 243.889C288.306 243.466 289.122 243.184 289.629 243.693C290.445 244.483 291.12 245.839 290.839 246.996C290.613 248.041 289.629 248.859 287.969 249.425C285.914 250.131 284.282 248.437 283.551 246.459C282.734 244.2 282.988 241.489 285.126 240.642C289.432 238.948 293.428 239.964 294.836 243.127C296.721 247.363 296.187 250.328 293.204 252.22C289.489 254.535 283.692 252.191 283.635 252.191C283.382 252.079 283.1 252.191 282.988 252.446C282.875 252.7 283.015 252.982 283.269 253.095C283.437 253.179 286.111 254.253 289.094 254.253C290.642 254.253 292.302 253.941 293.71 253.067C297.172 250.892 297.847 247.42 295.736 242.705C294.102 239.032 289.571 237.818 284.759 239.71ZM411.964 379.262C409.374 381.38 401.889 376.438 395.219 368.248C388.577 360.059 385.256 351.73 387.845 349.612C390.435 347.494 397.92 352.407 404.59 360.595C411.232 368.785 414.553 377.144 411.964 379.262ZM424.91 356.559L419.788 369.18C418.55 372.231 420.013 375.704 423.052 376.947C426.091 378.189 429.553 376.719 430.791 373.671L435.913 361.077L424.91 356.559Z" fill="white"/>
<path d="M445.566 397.221L443.54 406.313C443.54 406.313 433.324 408.573 424.149 405.664C414.609 404.394 406.307 397.984 406.307 397.984L408.333 388.891C407.601 392.138 415.228 396.6 425.415 398.915L428.032 387.111L428.482 387.196L425.865 399.028C436.054 401.259 444.835 400.468 445.566 397.221ZM435.913 361.077L441.908 346.336C443.146 343.286 441.682 339.812 438.643 338.571C435.603 337.328 432.142 338.767 430.904 341.819L424.91 356.559L435.913 361.077ZM411.964 379.262L404.759 385.135C404.759 385.135 395.331 380.59 389.927 372.598C383.201 365.68 380.668 355.485 380.668 355.485L387.844 349.612C385.284 351.702 388.519 359.947 395.077 368.079L404.42 360.426L404.73 360.794L395.387 368.446C402.002 376.523 409.403 381.351 411.964 379.262Z" fill="#E3482C"/>
<path d="M247.47 271.957C245.049 273.878 234.552 277.915 234.496 275.996C234.439 274.076 237.789 269.642 237.789 269.642L238.099 265.604C238.099 265.604 237.086 265.915 233.624 267.101C230.134 268.286 226.419 267.27 223.577 264.107C220.707 260.917 219.722 255.89 219.722 255.89C219.722 255.89 216.879 256.369 215.135 254.902C213.39 253.406 213.756 247.673 215.135 246.657C216.486 245.668 218.343 247.42 218.343 247.42V243.918C227.151 245.414 238.24 243.975 243.165 242.562C250.117 240.558 249.131 245.556 249.385 248.662C249.639 251.768 254.844 251.655 255.464 247.929C256.083 244.172 256.449 241.971 256.449 241.971C256.449 241.971 258.419 241.406 260.164 241.66C260.445 241.717 260.755 241.829 261.092 241.971C261.571 242.197 261.965 242.45 262.246 242.733C263.766 244.739 262.105 253.323 251.749 254.508L249.891 270.011C249.89 270.009 249.89 270.009 247.47 271.957ZM282.142 292.458L272.602 304.769H271.476L283.014 319.029L261.429 356.614C261.429 356.614 246.907 362.966 246.035 365.96C245.163 368.953 252.621 368.078 255.098 367.09C257.575 366.073 256.702 377.425 257.687 381.152C258.701 384.879 267.874 385.501 269.845 382.395C271.843 379.289 270.351 366.948 271.112 361.838C271.843 356.754 274.207 352.632 275.952 350.514C277.668 348.396 298.24 321.26 299.226 317.758C300.209 314.286 282.142 292.458 282.142 292.458ZM195.941 269.867L168.924 274.018L156.006 258.488C156.006 258.488 158.99 254.93 159.974 254.196C160.988 253.432 163.633 250.271 164.28 248.124C164.955 245.977 162.395 244.621 160.734 245.469C159.074 246.288 158.173 248.209 155.922 248.632C153.699 249.027 153.699 240.895 152.122 236.321C150.547 231.775 148.492 229.289 141.71 229.431C134.927 229.6 132.676 232.34 132.845 234.852C133.014 237.336 138.981 245.977 139.965 251.935C140.95 257.922 141.203 259.814 144.018 261.735C146.833 263.654 162.761 287.628 166.842 288.504C170.951 289.379 199.29 285.313 199.29 285.313C196.898 283.478 195.941 269.867 195.941 269.867ZM107.657 381.266L116.973 382.142L120.012 373.755L110.106 370.224L107.657 381.266ZM178.577 419.275L182.207 430.343L190.65 426.306L188.708 416.168L178.577 419.275Z" fill="#FFD2BB"/>
<path d="M408.926 391.045C409.034 391.2 409.137 391.354 409.27 391.512C409.138 391.355 409.034 391.2 408.926 391.045ZM409.922 392.191C409.883 392.154 409.855 392.118 409.816 392.082C409.854 392.118 409.883 392.154 409.922 392.191ZM172.717 321.158C172.717 321.157 172.716 321.157 172.716 321.156C172.716 321.157 172.716 321.158 172.717 321.158ZM208.859 351.427C208.888 351.433 208.916 351.438 208.944 351.443C208.915 351.438 208.887 351.433 208.859 351.427ZM405.211 377.676C405.205 377.672 405.199 377.669 405.194 377.665C405.2 377.669 405.205 377.672 405.211 377.676ZM444.928 398.323C444.929 398.322 444.93 398.32 444.931 398.319C444.93 398.32 444.929 398.322 444.928 398.323ZM501.401 436.867C485.641 461.97 438.249 470.414 413.596 452.567C388.914 434.749 350.106 428.423 261.062 459.035C197.748 480.82 124.702 450.771 90.6088 395.93C100.028 395.832 121.444 395.218 122.094 394.567C122.91 393.719 122.009 390.81 122.094 388.919C122.179 386.998 119.365 385.191 119.196 384.006C119.027 382.847 117.62 381.774 117.62 381.774L117.138 381.687L120.012 373.754L110.106 370.224L107.822 380.52C107.22 380.626 106.647 380.788 106.419 381.04C105.856 381.661 104.646 387.166 95.2184 389.256C91.673 390.029 89.2824 390.56 87.68 391.001C75.7196 369.793 69.4887 345.183 71.6064 318.607C76.0969 262.48 111.133 253.685 137.52 244.988C138.64 247.379 139.617 249.825 139.965 251.934C140.95 257.921 141.203 259.813 144.018 261.734C146.833 263.653 162.761 287.627 166.842 288.503C170.951 289.378 199.29 285.312 199.29 285.312C198.203 284.478 197.412 281.21 196.873 277.894C197.781 282.407 199.522 287.327 202.864 289.746C202.864 289.746 195.945 296.549 188.472 303.077C189.871 301.844 191.231 300.614 192.562 299.433C178.829 299.405 166.502 299.745 160.762 300.789C156.005 301.635 152.319 303.922 149.843 307.565C146.156 312.959 146.1 319.962 146.41 323.774L150.321 323.068C150.096 319.735 150.237 314.032 153.107 309.796C154.992 307.084 157.778 305.363 161.466 304.712C166.306 303.81 176.379 303.47 188.054 303.442C182.146 308.581 175.967 313.466 172.639 314.624C171.211 315.123 171.053 316.795 171.873 319.171L132.846 326.23L104.141 368.078L123.671 375.053L143.849 347.125L176.945 342.184C176.945 342.184 153.446 370.083 153.783 372.399C154.121 374.714 173.314 420.883 173.316 420.883L192.846 414.897L186.204 371.721L212.039 351.841L212.028 351.83C212.676 351.858 213.318 351.854 213.952 351.813C213.952 351.813 239.274 319.851 248.392 304.455C248.346 304.533 248.305 304.605 248.258 304.684C249.609 304.712 250.397 304.768 250.481 304.768C250.622 304.768 255.122 304.711 261.819 304.74L269.281 309.316C269.281 309.316 270.487 307.875 272.233 305.704L283.014 319.028L261.429 356.613C261.429 356.613 259.617 357.406 257.238 358.561H248.005V338.118H231.119V358.561H210.744V375.504H231.119V395.949H248.005V375.504H257.123C257.233 377.744 257.353 379.886 257.687 381.152C258.7 384.878 267.874 385.5 269.845 382.394C271.843 379.288 270.351 366.947 271.112 361.837C271.843 356.753 274.207 352.631 275.952 350.513C277.668 348.396 298.24 321.259 299.226 317.757C300.209 314.285 282.142 292.458 282.142 292.458L282.038 292.59C283.086 291.003 283.955 289.554 284.506 288.39C284.506 288.39 251.981 274.246 249.891 270.009L251.749 254.507C251.754 254.514 253.047 256.201 255.35 256.568C257.629 256.934 264.27 253.716 264.89 247.475C265.509 241.262 263.454 230.927 252.366 230.616C252.366 230.616 252.816 225.618 238.492 221.976C224.195 218.333 217.188 223.783 210.04 222.794C202.892 221.806 202.976 217.543 202.976 217.543C202.976 217.543 201.541 234.315 209.308 240.443C211.574 242.237 214.822 243.329 218.453 243.933C218.417 243.927 218.379 243.923 218.343 243.917V247.419C218.343 247.419 216.486 245.667 215.135 246.656C213.756 247.672 213.39 253.405 215.135 254.901C216.879 256.368 219.722 255.889 219.722 255.889C219.722 255.889 220.466 259.677 222.539 262.764C222.511 262.721 222.479 262.68 222.451 262.637C222.451 262.637 220.228 266.704 211.644 268.342C203.089 269.951 195.884 268.342 195.884 268.342C195.884 268.342 195.881 268.911 195.923 269.869L168.924 274.018L156.006 258.487C156.006 258.487 158.99 254.929 159.974 254.195C160.988 253.432 163.633 250.27 164.28 248.123C164.955 245.976 162.395 244.621 160.734 245.468C159.074 246.287 158.172 248.208 155.922 248.631C154.088 248.958 153.765 243.482 152.823 238.987C164.424 233 170.8 223.953 165.265 203.791C147.648 139.494 222.535 103.15 273.164 126.532C323.792 149.914 314.674 171.995 361.785 186.509C408.868 201.023 427.892 208.252 438.84 240.952C449.788 273.651 434.056 303.583 490.482 341.93C527.292 366.949 517.161 411.764 501.401 436.867ZM191.184 205.994C189.552 202.323 185.021 201.109 180.209 203.001C177.479 204.073 177.057 207.378 178.042 210.088C178.942 212.517 181.053 214.578 183.726 213.646C185.753 212.967 186.934 211.894 187.273 210.512C187.638 208.845 186.71 207.208 185.782 206.276C184.993 205.485 183.755 205.513 182.602 206.361C181.617 207.095 180.828 208.394 181.419 209.523C181.813 210.258 182.32 210.456 182.657 210.484C183.558 210.568 184.262 209.693 184.317 209.58C184.486 209.383 184.458 209.071 184.233 208.902C184.036 208.732 183.726 208.76 183.558 208.959C183.361 209.186 182.995 209.523 182.742 209.496C182.573 209.468 182.404 209.242 182.32 209.044C182.01 208.479 182.545 207.66 183.192 207.18C183.727 206.756 184.571 206.474 185.078 206.983C185.866 207.774 186.569 209.101 186.288 210.287C186.062 211.332 185.078 212.149 183.418 212.715C181.364 213.421 179.703 211.727 179 209.75C178.156 207.49 178.437 204.78 180.575 203.933C184.881 202.238 188.849 203.255 190.256 206.39C192.17 210.653 191.635 213.619 188.652 215.51C184.937 217.826 179.14 215.483 179.083 215.454C178.83 215.369 178.548 215.482 178.436 215.736C178.324 215.99 178.436 216.272 178.689 216.384C178.858 216.441 181.531 217.543 184.542 217.543C186.09 217.543 187.75 217.231 189.158 216.357C192.591 214.182 193.267 210.709 191.184 205.994ZM254.449 194.868C252.817 191.198 248.315 189.983 243.474 191.874C240.772 192.947 240.35 196.251 241.335 198.962C242.236 201.419 244.346 203.452 247.02 202.519C249.046 201.842 250.229 200.769 250.538 199.385C250.932 197.748 249.975 196.082 249.074 195.15C248.286 194.36 247.02 194.388 245.894 195.235C244.909 195.969 244.121 197.269 244.712 198.397C245.106 199.131 245.584 199.33 245.95 199.359C246.822 199.442 247.525 198.568 247.61 198.454C247.779 198.257 247.751 197.946 247.525 197.777C247.329 197.607 247.019 197.635 246.85 197.861C246.654 198.059 246.287 198.397 246.034 198.37C245.838 198.341 245.697 198.115 245.583 197.918C245.302 197.353 245.837 196.534 246.484 196.054C247.019 195.631 247.863 195.349 248.369 195.857C249.158 196.648 249.86 197.975 249.579 199.16C249.326 200.205 248.369 201.024 246.709 201.589C244.655 202.295 242.994 200.601 242.262 198.624C241.446 196.364 241.727 193.654 243.838 192.807C248.144 191.113 252.14 192.128 253.548 195.263C255.462 199.528 254.927 202.492 251.916 204.384C248.229 206.699 242.431 204.356 242.376 204.327C242.122 204.243 241.813 204.355 241.728 204.609C241.616 204.864 241.728 205.146 241.981 205.259C242.15 205.344 244.824 206.416 247.807 206.416C249.383 206.416 251.044 206.106 252.451 205.231C255.884 203.056 256.56 199.584 254.449 194.868ZM423.052 376.947C426.091 378.189 429.553 376.72 430.791 373.671L435.913 361.077L441.908 346.336C443.146 343.286 441.682 339.812 438.643 338.571C435.603 337.328 432.142 338.768 430.904 341.819L424.91 356.559L419.788 369.181C418.55 372.231 420.013 375.705 423.052 376.947ZM289.094 254.253C290.642 254.253 292.302 253.942 293.71 253.067C297.172 250.892 297.847 247.42 295.736 242.705C294.102 239.032 289.571 237.818 284.759 239.71C282.029 240.783 281.607 244.088 282.62 246.797C283.493 249.255 285.604 251.288 288.305 250.384C290.304 249.678 291.485 248.633 291.823 247.222C292.189 245.583 291.26 243.918 290.331 242.986C289.543 242.195 288.305 242.223 287.151 243.07C286.167 243.805 285.406 245.104 285.998 246.233C286.364 246.966 286.87 247.166 287.208 247.194C288.108 247.278 288.812 246.403 288.897 246.318C289.066 246.092 289.009 245.782 288.812 245.612C288.587 245.442 288.277 245.47 288.108 245.696C287.94 245.895 287.573 246.233 287.292 246.205C287.124 246.178 286.955 245.951 286.87 245.753C286.561 245.189 287.096 244.369 287.743 243.889C288.306 243.466 289.122 243.184 289.628 243.693C290.445 244.483 291.12 245.839 290.839 246.996C290.613 248.041 289.628 248.859 287.968 249.425C285.914 250.131 284.282 248.437 283.55 246.459C282.734 244.2 282.988 241.49 285.126 240.642C289.432 238.948 293.428 239.964 294.836 243.127C296.721 247.363 296.187 250.329 293.204 252.22C289.488 254.535 283.691 252.191 283.635 252.191C283.382 252.079 283.1 252.191 282.988 252.446C282.875 252.7 283.015 252.982 283.269 253.095C283.437 253.18 286.111 254.253 289.094 254.253ZM373.41 333.149H356.861V339.136H339.215C338.709 331.766 335.894 306.126 320.81 303.302C314.309 302.088 301.757 301.438 289.009 301.099C290.023 302.398 291.063 303.781 292.077 305.166C303.531 305.532 314.394 306.154 320.079 307.227C334.234 309.881 335.332 340.857 335.36 341.197L335.417 343.118H360.83V337.131H369.441V390.924H360.83V383.95H335.417L335.36 385.869C335.332 386.18 334.234 417.186 320.079 419.84C304.572 422.777 251.017 422.297 250.37 422.297C249.891 422.325 216.542 423.681 190.145 423.624L190.556 425.802L190.554 425.803L188.708 416.168L178.577 419.275L179.976 423.54C171.847 423.397 165.152 423.03 161.466 422.353C157.779 421.704 154.992 419.981 153.135 417.27C148.857 411.001 150.63 401.344 150.658 401.259L150.686 401.062V346.111L146.717 346.704V400.694C146.436 402.304 144.944 412.329 149.841 419.501C152.318 423.143 156.004 425.431 160.76 426.278C164.867 427.012 172.319 427.409 181.291 427.549L181.964 429.6C181.497 430.001 181.083 430.434 181.026 430.768C180.857 431.587 182.63 436.952 175.594 443.588C168.558 450.223 167.658 451.155 168.418 452.426C169.207 453.725 170.05 454.346 171.317 453.895C172.584 453.415 201.12 435.455 201.401 434.297C201.682 433.168 199.403 431.134 198.502 429.468C197.966 428.46 196.563 428.012 195.361 427.624C220.296 427.509 248.637 426.36 250.455 426.278C252.65 426.307 304.94 426.758 320.812 423.766C335.896 420.915 338.71 395.302 339.217 387.932H356.863V394.907H373.411V333.149H373.41ZM404.759 385.135L411.964 379.262C414.553 377.144 411.232 368.785 404.59 360.596C397.92 352.407 390.434 347.494 387.845 349.612C387.683 349.744 387.545 349.901 387.429 350.079C387.545 349.9 387.683 349.743 387.844 349.612L380.668 355.485C380.668 355.485 383.201 365.68 389.927 372.598C395.331 380.59 404.759 385.135 404.759 385.135ZM428.258 387.141C417.987 384.852 409.065 385.643 408.334 388.891C408.197 389.503 408.357 390.16 408.775 390.837C408.356 390.16 408.195 389.504 408.333 388.891L406.306 397.984C406.306 397.984 414.609 404.394 424.149 405.664C433.324 408.573 443.54 406.313 443.54 406.313L445.566 397.221C446.298 393.973 438.53 389.456 428.258 387.141ZM387.025 351.272C387.019 351.316 387.004 351.353 386.999 351.398C387.004 351.352 387.018 351.316 387.025 351.272ZM249.421 302.665C249.447 302.617 249.473 302.569 249.5 302.52C249.472 302.569 249.447 302.616 249.421 302.665ZM387.375 350.197C387.289 350.346 387.208 350.499 387.15 350.677C387.208 350.5 387.288 350.346 387.375 350.197ZM248.674 303.974C248.759 303.828 248.848 303.678 248.93 303.535C248.848 303.678 248.759 303.828 248.674 303.974ZM222.724 263.026C222.831 263.179 222.938 263.33 223.054 263.479C222.938 263.332 222.831 263.178 222.724 263.026ZM255.322 300.76L257.584 302.144L251.41 298.36C251.213 299.019 250.872 299.831 250.415 300.764C250.464 300.783 250.513 300.789 250.538 300.789C250.904 300.789 252.62 300.76 255.322 300.76Z" fill="#00CEC9"/>
<path d="M250.481 304.769C250.622 304.769 255.124 304.712 261.823 304.741L255.322 300.76C252.621 300.76 250.904 300.789 250.538 300.789C250.51 300.789 250.453 300.788 250.397 300.76C249.862 301.918 249.13 303.217 248.258 304.685C249.609 304.713 250.397 304.769 250.481 304.769ZM257.264 358.562H248.005V338.119H231.119V358.562H210.744V375.505H231.119V395.95H248.005V375.505H257.123C256.898 371.128 256.729 366.413 255.097 367.091C252.62 368.079 245.163 368.954 246.034 365.961C246.597 364.012 252.902 360.68 257.264 358.562ZM356.861 333.149V339.136H339.215C338.709 331.766 335.895 306.126 320.81 303.302C314.309 302.087 301.757 301.438 289.009 301.099C290.023 302.398 291.063 303.781 292.077 305.166C303.531 305.532 314.394 306.154 320.079 307.227C334.235 309.881 335.333 340.857 335.36 341.197L335.417 343.118H360.83V337.131H369.442V390.924H360.83V383.95H335.417L335.36 385.869C335.333 386.18 334.235 417.186 320.079 419.84C304.572 422.776 251.017 422.297 250.37 422.297C249.891 422.325 216.542 423.681 190.145 423.624L190.651 426.307L187.866 427.634C189.048 427.634 190.257 427.634 191.467 427.634C217.246 427.634 248.541 426.364 250.454 426.278C252.649 426.307 304.939 426.758 320.811 423.766C335.896 420.915 338.709 395.302 339.216 387.931H356.862V394.907H373.41V333.149H356.861ZM161.466 422.353C157.779 421.704 154.993 419.981 153.135 417.27C148.857 411.001 150.63 401.344 150.658 401.259L150.686 401.062V346.111L146.718 346.704V400.694C146.437 402.304 144.944 412.329 149.841 419.501C152.318 423.143 156.004 425.431 160.76 426.278C164.869 427.012 172.326 427.409 181.304 427.549L179.982 423.54C171.851 423.397 165.153 423.029 161.466 422.353ZM150.321 323.069C150.096 319.736 150.237 314.033 153.107 309.797C154.993 307.085 157.778 305.364 161.466 304.713C166.307 303.811 176.382 303.471 188.06 303.443C189.608 302.088 191.099 300.733 192.563 299.434C178.829 299.406 166.502 299.746 160.762 300.79C156.005 301.636 152.319 303.923 149.843 307.566C146.157 312.96 146.1 319.963 146.41 323.775L150.321 323.069Z" fill="#E84393"/>
<path d="M249.89 270.009C249.89 270.009 249.89 270.009 247.47 271.957C245.049 273.878 234.552 277.915 234.496 275.996C234.439 274.076 237.789 269.642 237.789 269.642L238.099 265.604C238.099 265.604 237.086 265.916 233.624 267.101C230.134 268.286 226.419 267.27 223.577 264.108C223.155 263.655 222.789 263.147 222.451 262.638C222.451 262.638 220.228 266.705 211.644 268.343C203.089 269.952 195.884 268.343 195.884 268.343C195.884 268.343 195.8 284.636 202.864 289.747C202.864 289.747 180.266 311.97 172.639 314.625C165.04 317.279 193.38 353.141 213.953 351.814C213.953 351.814 248.427 308.3 251.41 298.36L269.281 309.317C269.281 309.317 281.523 294.689 284.506 288.392C284.506 288.392 251.973 274.245 249.89 270.009Z" fill="#0984E3"/>
<path d="M202.976 217.543C202.976 217.543 202.892 221.807 210.04 222.795C217.188 223.783 224.195 218.333 238.492 221.976C252.816 225.618 252.366 230.617 252.366 230.617C263.454 230.928 265.509 241.263 264.89 247.475C264.27 253.716 257.629 256.935 255.35 256.568C253.043 256.201 251.748 254.507 251.748 254.507C262.105 253.322 263.765 244.737 262.245 242.732C260.725 240.698 256.448 241.97 256.448 241.97C256.448 241.97 256.081 244.172 255.463 247.928C254.843 251.654 249.637 251.767 249.384 248.661C249.131 245.555 250.116 240.557 243.164 242.561C236.212 244.567 217.047 246.571 209.308 240.443C201.541 234.316 202.976 217.543 202.976 217.543ZM153.783 372.4C153.446 370.084 176.945 342.185 176.945 342.185L143.849 347.126L123.671 375.054L104.141 368.079L132.846 326.231L171.88 319.171C175.313 329.054 195.604 351.079 212.012 351.814L212.039 351.842L186.205 371.722L192.846 414.898L173.316 420.884C173.316 420.884 154.121 374.715 153.783 372.4ZM119.196 384.005C119.027 382.847 117.62 381.774 117.62 381.774L109.656 380.335C109.656 380.335 106.982 380.419 106.419 381.041C105.856 381.661 104.646 387.167 95.2185 389.257C85.7629 391.319 84.5239 391.658 84.5239 393.154C84.5239 394.65 84.9459 395.639 86.2683 395.894C87.5907 396.148 121.278 395.385 122.094 394.567C122.91 393.719 122.009 390.81 122.094 388.919C122.179 386.998 119.365 385.191 119.196 384.005ZM193.521 426.757C192.789 425.825 191.016 425.627 191.016 425.627L183.446 428.508C183.446 428.508 181.166 429.948 181.025 430.768C180.856 431.586 182.629 436.952 175.593 443.587C168.557 450.223 167.657 451.155 168.417 452.425C169.206 453.724 170.05 454.346 171.316 453.895C172.583 453.415 201.12 435.455 201.4 434.297C201.681 433.167 199.402 431.134 198.501 429.468C197.601 427.774 194.252 427.662 193.521 426.757Z" fill="#191850"/>
</g>
<defs>
<clipPath id="clip0_17_52">
<rect width="591" height="593" fill="white"/>
</clipPath>
</defs>
</svg>
