<svg width="40" height="38" viewBox="0 0 40 38" fill="none" xmlns="http://www.w3.org/2000/svg">
<g filter="url(#filter0_d_16_4)">
<ellipse cx="19.5789" cy="15.0002" rx="15.5789" ry="15" fill="white"/>
<path d="M34.6579 15.0002C34.6579 22.9906 27.9248 29.5002 19.5789 29.5002C11.2331 29.5002 4.5 22.9906 4.5 15.0002C4.5 7.0097 11.2331 0.500153 19.5789 0.500153C27.9248 0.500153 34.6579 7.0097 34.6579 15.0002Z" stroke="#A30000"/>
</g>
<path d="M25.9438 13.7761H25.421V13.7502H19.5789V16.2502H23.2474C22.7122 17.7055 21.2741 18.7502 19.5789 18.7502C17.428 18.7502 15.6841 17.0711 15.6841 15.0002C15.6841 12.9292 17.428 11.2502 19.5789 11.2502C20.5717 11.2502 21.475 11.6108 22.1627 12.1998L23.9988 10.432C22.8394 9.39172 21.2887 8.75015 19.5789 8.75015C15.9941 8.75015 13.0876 11.5486 13.0876 15.0002C13.0876 18.4517 15.9941 21.2502 19.5789 21.2502C23.1637 21.2502 26.0701 18.4517 26.0701 15.0002C26.0701 14.5811 26.0253 14.172 25.9438 13.7761Z" fill="#FBC02D"/>
<path d="M13.8361 12.0911L15.9688 13.597C16.5458 12.2214 17.9434 11.2502 19.5788 11.2502C20.5717 11.2502 21.4749 11.6108 22.1627 12.1998L23.9987 10.432C22.8394 9.39172 21.2886 8.75015 19.5788 8.75015C17.0856 8.75015 14.9233 10.1055 13.8361 12.0911Z" fill="#E53935"/>
<path d="M19.5789 21.2502C21.2555 21.2502 22.779 20.6323 23.9309 19.6277L21.9219 17.9908C21.2702 18.4661 20.46 18.7502 19.5789 18.7502C17.8905 18.7502 16.4569 17.7136 15.9168 16.267L13.8 17.8373C14.8743 19.8614 17.056 21.2502 19.5789 21.2502Z" fill="#4CAF50"/>
<path d="M25.9438 13.7761L25.9386 13.7502H25.421H19.5789V16.2502H23.2474C22.9903 16.9492 22.5233 17.552 21.9209 17.9911C21.9212 17.9908 21.9215 17.9908 21.9219 17.9905L23.9309 19.6273C23.7887 19.7517 26.0701 18.1252 26.0701 15.0002C26.0701 14.5811 26.0253 14.172 25.9438 13.7761Z" fill="#1565C0"/>
<defs>
<filter id="filter0_d_16_4" x="0" y="0.000152588" width="39.1579" height="38" filterUnits="userSpaceOnUse" color-interpolation-filters="sRGB">
<feFlood flood-opacity="0" result="BackgroundImageFix"/>
<feColorMatrix in="SourceAlpha" type="matrix" values="0 0 0 0 0 0 0 0 0 0 0 0 0 0 0 0 0 0 127 0" result="hardAlpha"/>
<feOffset dy="4"/>
<feGaussianBlur stdDeviation="2"/>
<feComposite in2="hardAlpha" operator="out"/>
<feColorMatrix type="matrix" values="0 0 0 0 0.639216 0 0 0 0 0 0 0 0 0 0 0 0 0 0.25 0"/>
<feBlend mode="normal" in2="BackgroundImageFix" result="effect1_dropShadow_16_4"/>
<feBlend mode="normal" in="SourceGraphic" in2="effect1_dropShadow_16_4" result="shape"/>
</filter>
</defs>
</svg>
