<svg width="103" height="103" viewBox="0 0 103 103" fill="none" xmlns="http://www.w3.org/2000/svg">
<g clip-path="url(#clip0_16_119)" filter="url(#filter0_d_16_119)">
<path d="M90.069 58.9655C90.069 78.5533 72.8396 94.5 51.5 94.5C30.1602 94.5 12.931 78.5533 12.931 58.9655C12.931 52.5311 15.3318 45.6551 18.9751 38.9345C22.6155 32.2192 27.4756 25.6968 32.3461 19.9795C37.2153 14.2637 42.0859 9.36281 45.7399 5.8905C47.5666 4.15465 49.0884 2.77656 50.1529 1.83298C50.6852 1.36121 51.103 0.998103 51.3875 0.753259C51.4277 0.718649 51.4652 0.686403 51.5 0.656548C51.5348 0.686403 51.5724 0.718649 51.6126 0.753259C51.897 0.998103 52.3149 1.36121 52.8471 1.83298C53.9116 2.77656 55.4334 4.15465 57.2601 5.8905C60.9141 9.36281 65.7847 14.2637 70.6539 19.9795C75.5244 25.6968 80.3846 32.2192 84.0249 38.9345C87.6682 45.6551 90.069 52.5311 90.069 58.9655Z" fill="#A30000" stroke="#A30000"/>
<path d="M51.5 94.4971V94.3074V94.0757V93.8437V93.6114V93.3787V93.1456V92.9122V92.6785V92.4444V92.21V91.9752V91.7401V91.5047V91.2689V91.0328V90.7964V90.5597V90.3227V90.0853V89.8477V89.6097V89.3715V89.1329V88.8941V88.6549V88.4155V88.1758V87.9358V87.6955V87.455V87.2142V86.9731V86.7317V86.4901V86.2483V86.0061V85.7637V85.5211V85.2782V85.0351V84.7918V84.5482V84.3044V84.0603V83.816V83.5715V83.3268V83.0818V82.8367V82.5913V82.3457V82.1V81.854V81.6078V81.3614V81.1149V80.8681V80.6212V80.374V80.1267V79.8793V79.6316V79.3838V79.1358V78.8877V78.6394V78.3909V78.1423V77.8936V77.6447V77.3956V77.1464V76.8971V76.6477V76.3981V76.1484V75.8985V75.6486V75.3985V75.1483V74.898V74.6476V74.3971V74.1465V73.8958V73.645V73.3941V73.1431V72.892V72.6409V72.3896V72.1383V71.887V71.6355V71.384V71.1324V70.8808V70.6291V70.3774V70.1256V69.8738V69.6219V69.37V69.118V68.866V68.614V68.3619V68.1099V67.8578V67.6057V67.3536V67.1014V66.8493V66.5971V66.345V66.0928V65.8407V65.5886V65.3365V65.0844V64.8323V64.5802V64.3282V64.0762V63.8242V63.5722V63.3203V63.0685V62.8166V62.5649V62.3131V62.0615V61.8098V61.5583V61.3068V61.0554V60.804V60.5527V60.3015V60.0504V59.7993V59.5484V59.2975V59.0467V58.7961V58.5455V58.295V58.0446V57.7943V57.5442V57.2941V57.0442V56.7944V56.5447V56.2952V56.0458V55.7965V55.5473V55.2983V55.0495V54.8007V54.5522V54.3038V54.0555V53.8074V53.5595V53.3117V53.0641V52.8167V52.5694V52.3224V52.0755V51.8288V51.5823V51.3359V51.0898V50.8439V50.5982V50.3526V50.1073V49.8622V49.6174V49.3727V49.1282V48.884V48.64V48.3963V48.1527V47.9094V47.6664V47.4236V47.181V46.9387V46.6967V46.4548V46.2133V45.972V45.731V45.4903V45.2498V45.0096V44.7697V44.5301V44.2907V44.0517V43.8129V43.5744V43.3362V43.0984V42.8608V42.6236V42.3866V42.15V41.9137V41.6777V41.442V41.2067V40.9716V40.737V40.5026V40.2686V40.035V39.8017V39.5687V39.3361V39.1038V38.872V38.6404V38.4093V38.1785V37.9481V37.718V37.4884V37.2591V37.0302V36.8017V36.5736V36.3458V36.1185V35.8916V35.6651V35.439V35.2133V34.988V34.7631V34.5387V34.3147V34.0911V33.8679V33.6452V33.4229V33.201V32.9796V32.7587V32.5381V32.3181V32.0985V31.8793V31.6607V31.4424V31.2247V31.0074V30.7906V30.5743V30.3585V30.1431V29.9283V29.7139V29.5V29.2866V29.0738V28.8614V28.6495V28.4382V28.2274V28.017V27.8072V27.598V27.3892V27.181V26.9733V26.7662V26.5596V26.3535V26.148V25.943V25.7386V25.5347V25.3314V25.1287V24.9265V24.7249V24.5239V24.3234V24.1236V23.9243V23.7256V23.5275V23.3299V23.133V22.9367V22.7409V22.5458V22.3513V22.1574V21.9641V21.7714V21.5793V21.3879V21.1971V21.0069V20.8174V20.6285V20.4402V20.2526V20.0656V19.8793V19.6936V19.5086V19.3242V19.1405V18.9575V18.7751V18.5934V18.4124V18.2321V18.0524V17.8735V17.6952V17.5176V17.3407V17.1645V16.989V16.8142V16.6401V16.4668V16.2941V16.1222V15.9509V15.7804V15.6107V15.4416V15.2733V15.1058V14.9389V14.7728V14.6075V14.4429V14.2791V14.116V13.9537V13.7921V13.6313V13.4713V13.312V13.1536V12.9959V12.8389V12.6828V12.5275V12.3729V12.2191V12.0662V11.914V11.7627V11.6121V11.4624V11.3134V11.1653V11.018V10.8716V10.7259V10.5811V10.4372V10.294V10.1517V10.0103V9.86967V9.72991V9.59101V9.45296V9.31577V9.17944V9.04397V8.90938V8.77565V8.64281V8.51084V8.37975V8.24955V8.12023V7.99181V7.86428V7.73764V7.61191V7.48709V7.36317V7.24016V7.11806V6.99689V6.87663V6.75729V6.63889V6.52141V6.40486V6.28926V6.17459V6.06086V5.94808V5.83625V5.72537V5.61545V5.50649V5.39849V5.29145V5.18538V5.08029V4.97617V4.87302V4.77086V4.66969V4.5695V4.4703V4.3721V4.27489V4.17869V4.08349V3.98929V3.89611V3.80394V3.71279V3.62266V3.53355V3.44547V3.35841V3.27239V3.18741V3.10347V3.02057V2.93871V2.85791V2.77815V2.69945V2.62181V2.54524V2.46972V2.39528V2.32191V2.24961V2.17839V2.10825V2.0392V1.97124V1.90436V1.83858V1.7739V1.71032V1.64784V1.58647V1.52621V1.46706V1.40903V1.35212V1.29633V1.24167V1.18814V1.13574V1.08869C51.7362 1.29428 52.0201 1.54312 52.3471 1.83298C53.4116 2.77656 54.9334 4.15465 56.7601 5.8905C60.4141 9.36281 65.2847 14.2637 70.1539 19.9795C75.0244 25.6968 79.8845 32.2192 83.5249 38.9345C87.1682 45.6551 89.569 52.5311 89.569 58.9655C89.569 78.4001 72.6081 94.2503 51.5 94.4971Z" fill="#A30000" stroke="#A30000" stroke-linejoin="round"/>
<line x1="51.5" y1="2.00003" x2="51.5" y2="93" stroke="#A30000"/>
<path d="M67.7789 52.9598H58.0116V43.9511H44.9885V52.9598H35.2212V64.9713H44.9885V73.9798H58.0116V64.9713H67.7789V52.9598Z" fill="white"/>
</g>
<defs>
<filter id="filter0_d_16_119" x="-4" y="3.05176e-05" width="111" height="103" filterUnits="userSpaceOnUse" color-interpolation-filters="sRGB">
<feFlood flood-opacity="0" result="BackgroundImageFix"/>
<feColorMatrix in="SourceAlpha" type="matrix" values="0 0 0 0 0 0 0 0 0 0 0 0 0 0 0 0 0 0 127 0" result="hardAlpha"/>
<feOffset dy="4"/>
<feGaussianBlur stdDeviation="2"/>
<feComposite in2="hardAlpha" operator="out"/>
<feColorMatrix type="matrix" values="0 0 0 0 0.639216 0 0 0 0 0 0 0 0 0 0 0 0 0 0.25 0"/>
<feBlend mode="normal" in2="BackgroundImageFix" result="effect1_dropShadow_16_119"/>
<feBlend mode="normal" in="SourceGraphic" in2="effect1_dropShadow_16_119" result="shape"/>
</filter>
<clipPath id="clip0_16_119">
<rect width="103" height="95" fill="white"/>
</clipPath>
</defs>
</svg>
