<svg width="68" height="112" viewBox="0 0 68 112" fill="none" xmlns="http://www.w3.org/2000/svg">
<path fill-rule="evenodd" clip-rule="evenodd" d="M59.4103 8.84763e-06C60.7161 8.65703e-06 61.0674 1.79951 59.8576 2.29066C53.9275 5.50242 45.0568 11.8793 45.1542 18.116C45.2516 24.3527 54.3334 31.4889 54.4308 37.7256C54.5145 43.0838 47.9789 48.5453 48.0931 53.9029C48.1314 55.6979 48.6421 57.5548 49.5652 59.0946C52.7598 64.4236 64.3113 69.6221 66.9728 74.9594C69.6681 80.3643 65.5384 86.6685 62.5222 92.3636C61.6819 93.9502 61.2743 95.7411 61.5173 97.5199C62.2086 102.579 64.3237 107.309 64.5212 110.033C64.5359 110.236 64.6097 110.431 64.7447 110.584C65.2316 111.133 64.8416 112 64.1075 112L48 112L38.5 112L34 112L19 112L12.8477 112C11.6239 112 10.4081 111.803 9.24713 111.416C8.41846 111.139 7.62433 110.769 6.88041 110.311L6.70654 110.204C3.43552 108.191 1.32567 104.734 1.03107 100.905L0.99995 100.5C0.999951 96.5 1.09736 82.2368 0.999952 76C0.90254 69.7633 1.09737 59.7368 0.999954 53.5C0.999954 52.5 1.09737 43.9624 0.999956 37.7256C0.902544 31.4889 1.09737 24.3527 0.999954 18.116C0.96668 15.9857 0.961816 13.8281 0.9679 11.7862C0.984359 6.26251 4.88085 1.44402 10.2777 0.26667L10.4123 0.237298C11.1353 0.0795673 11.8732 1.59232e-05 12.6132 1.57881e-05L59.4103 8.84763e-06Z" fill="#A30000" fill-opacity="0.67"/>
</svg>
