<svg width="40" height="38" viewBox="0 0 40 38" fill="none" xmlns="http://www.w3.org/2000/svg">
<g filter="url(#filter0_d_16_6)">
<ellipse cx="19.5789" cy="15.0002" rx="15.5789" ry="15" fill="white"/>
<path d="M34.6579 15.0002C34.6579 22.9906 27.9248 29.5002 19.5789 29.5002C11.2331 29.5002 4.5 22.9906 4.5 15.0002C4.5 7.0097 11.2331 0.500153 19.5789 0.500153C27.9248 0.500153 34.6579 7.0097 34.6579 15.0002Z" stroke="#A30000"/>
</g>
<path d="M19.5789 7.50015C15.2772 7.50015 11.7894 11.0043 11.7894 15.3262C11.7894 18.9934 14.3028 22.0619 17.6913 22.911C17.6549 22.8054 17.6315 22.6828 17.6315 22.5308V21.1932C17.3154 21.1932 16.7857 21.1932 16.6527 21.1932C16.1197 21.1932 15.6459 20.963 15.4161 20.5352C15.161 20.0597 15.1168 19.3325 14.4846 18.8878C14.297 18.7397 14.4398 18.5708 14.656 18.5936C15.0552 18.7071 15.3862 18.9823 15.6978 19.3906C16.0081 19.7995 16.1541 19.8921 16.7338 19.8921C17.0149 19.8921 17.4355 19.8758 17.8315 19.8132C18.0444 19.2699 18.4124 18.7697 18.8623 18.5336C16.2684 18.2656 15.0305 16.9691 15.0305 15.2088C15.0305 14.451 15.3518 13.718 15.8977 13.1004C15.7186 12.4873 15.4933 11.2371 15.9665 10.761C17.1337 10.761 17.8393 11.5215 18.0087 11.7269C18.5903 11.5267 19.229 11.4132 19.9002 11.4132C20.5727 11.4132 21.214 11.5267 21.797 11.7282C21.9644 11.5241 22.6707 10.761 23.8404 10.761C24.3156 11.2378 24.0877 12.4932 23.9066 13.1049C24.4493 13.7212 24.7686 14.4523 24.7686 15.2088C24.7686 16.9678 23.5327 18.2636 20.9427 18.533C21.6554 18.9067 22.1754 19.9567 22.1754 20.7478V22.5308C22.1754 22.5986 22.1605 22.6475 22.1527 22.7056C25.188 21.6367 27.3684 18.741 27.3684 15.3262C27.3684 11.0043 23.8806 7.50015 19.5789 7.50015Z" fill="black"/>
<g filter="url(#filter1_d_16_6)">
<ellipse cx="19.5789" cy="15.0002" rx="15.5789" ry="15" fill="white"/>
<path d="M34.6579 15.0002C34.6579 22.9906 27.9248 29.5002 19.5789 29.5002C11.2331 29.5002 4.5 22.9906 4.5 15.0002C4.5 7.0097 11.2331 0.500153 19.5789 0.500153C27.9248 0.500153 34.6579 7.0097 34.6579 15.0002Z" stroke="#A30000"/>
</g>
<path d="M19.5789 7.50015C15.2772 7.50015 11.7894 10.9109 11.7894 15.1176C11.7894 18.687 14.3028 21.6737 17.6913 22.5002C17.6549 22.3973 17.6315 22.278 17.6315 22.1301V20.8281C17.3154 20.8281 16.7857 20.8281 16.6527 20.8281C16.1197 20.8281 15.6459 20.604 15.4161 20.1876C15.161 19.7249 15.1168 19.0171 14.4846 18.5842C14.297 18.4401 14.4398 18.2757 14.656 18.2979C15.0552 18.4083 15.3862 18.6762 15.6978 19.0736C16.0081 19.4716 16.1541 19.5617 16.7338 19.5617C17.0149 19.5617 17.4355 19.5459 17.8315 19.4849C18.0444 18.9561 18.4124 18.4693 18.8623 18.2395C16.2684 17.9786 15.0305 16.7166 15.0305 15.0033C15.0305 14.2657 15.3518 13.5522 15.8977 12.9511C15.7186 12.3544 15.4933 11.1375 15.9665 10.6741C17.1337 10.6741 17.8393 11.4142 18.0087 11.6142C18.5903 11.4193 19.229 11.3089 19.9002 11.3089C20.5727 11.3089 21.214 11.4193 21.797 11.6155C21.9644 11.4168 22.6707 10.6741 23.8404 10.6741C24.3156 11.1381 24.0877 12.3601 23.9066 12.9555C24.4493 13.5554 24.7686 14.267 24.7686 15.0033C24.7686 16.7153 23.5327 17.9767 20.9427 18.2388C21.6554 18.6026 22.1754 19.6246 22.1754 20.3946V22.1301C22.1754 22.1961 22.1605 22.2437 22.1527 22.3002C25.188 21.2598 27.3684 18.4413 27.3684 15.1176C27.3684 10.9109 23.8806 7.50015 19.5789 7.50015Z" fill="black"/>
<defs>
<filter id="filter0_d_16_6" x="0" y="0.000152588" width="39.1578" height="38" filterUnits="userSpaceOnUse" color-interpolation-filters="sRGB">
<feFlood flood-opacity="0" result="BackgroundImageFix"/>
<feColorMatrix in="SourceAlpha" type="matrix" values="0 0 0 0 0 0 0 0 0 0 0 0 0 0 0 0 0 0 127 0" result="hardAlpha"/>
<feOffset dy="4"/>
<feGaussianBlur stdDeviation="2"/>
<feComposite in2="hardAlpha" operator="out"/>
<feColorMatrix type="matrix" values="0 0 0 0 0.639216 0 0 0 0 0 0 0 0 0 0 0 0 0 0.25 0"/>
<feBlend mode="normal" in2="BackgroundImageFix" result="effect1_dropShadow_16_6"/>
<feBlend mode="normal" in="SourceGraphic" in2="effect1_dropShadow_16_6" result="shape"/>
</filter>
<filter id="filter1_d_16_6" x="0" y="0.000152588" width="39.1578" height="38" filterUnits="userSpaceOnUse" color-interpolation-filters="sRGB">
<feFlood flood-opacity="0" result="BackgroundImageFix"/>
<feColorMatrix in="SourceAlpha" type="matrix" values="0 0 0 0 0 0 0 0 0 0 0 0 0 0 0 0 0 0 127 0" result="hardAlpha"/>
<feOffset dy="4"/>
<feGaussianBlur stdDeviation="2"/>
<feComposite in2="hardAlpha" operator="out"/>
<feColorMatrix type="matrix" values="0 0 0 0 0.639216 0 0 0 0 0 0 0 0 0 0 0 0 0 0.25 0"/>
<feBlend mode="normal" in2="BackgroundImageFix" result="effect1_dropShadow_16_6"/>
<feBlend mode="normal" in="SourceGraphic" in2="effect1_dropShadow_16_6" result="shape"/>
</filter>
</defs>
</svg>
