<svg width="592" height="642" viewBox="0 0 592 642" fill="none" xmlns="http://www.w3.org/2000/svg">
<g clip-path="url(#clip0_14_446)">
<path d="M513.093 573.305C513.093 575.424 511.506 577.14 509.55 577.14H61.3754C59.4183 577.14 57.832 575.423 57.832 573.305C57.832 571.187 59.4183 569.468 61.3754 569.468H81.1629H86.8882H90.358H92.9179H96.1013H97.224H100.36H107.503H110.535H116.409H119.55H124.195H127.515H132.677H135.942H144.956H220.173C220.283 570.122 220.783 570.618 221.446 570.618H256.868H263.765H299.187C299.768 570.618 300.118 570.043 299.965 569.468H401.872H407.597H411.067H413.627H416.811H417.933H421.069H428.212H431.245H437.118H440.26H444.904H448.225H453.386H456.651H465.665H509.547C511.506 569.469 513.093 571.187 513.093 573.305Z" fill="#263238"/>
<path d="M220.174 569.469C220.145 569.297 220.136 569.115 220.167 568.927C221.135 562.937 224.871 555.307 224.871 555.307L226.131 555.232L231.707 554.897C233.018 554.818 234.301 554.302 235.382 553.419L238.52 550.859L239.359 550.174L242.729 555.824C244.524 558.778 248.325 559.917 251.589 560.634L256.207 561.648C256.942 558.111 257.867 555.308 257.867 555.308L259.115 555.233L264.638 554.898C265.935 554.819 267.138 554.303 268.079 553.42L270.81 550.86L271.54 550.175L275.806 555.825C278.068 558.779 282.05 559.918 285.428 560.635L291.943 562.018C294.758 562.615 297.288 564.559 298.799 567.284L299.867 569.212C299.913 569.297 299.947 569.384 299.97 569.471C300.123 570.046 299.773 570.621 299.192 570.621H263.77H256.873H221.451C220.784 570.619 220.284 570.123 220.174 569.469ZM240.155 548.146C241.256 539.501 242.377 530.961 243.653 522.48C243.688 522.239 243.724 521.997 243.761 521.756C245.604 509.603 247.785 497.566 250.718 485.515C248.426 497.515 248.421 510.616 250.316 523.51C250.354 523.766 250.4 524.021 250.439 524.278C251.687 532.439 253.682 540.507 256.354 548.147H257.864H270.757H272.014C271.805 541.439 271.619 534.795 271.513 528.192C271.509 527.969 271.506 527.746 271.502 527.523C271.245 510.641 271.543 494.025 273.458 477.318C276.883 447.426 274.339 411.196 272.103 379.484C271.527 379.834 271.064 380.135 270.839 380.323C270.625 378.271 270.436 376.218 270.264 374.164C270.095 372.135 269.945 370.105 269.81 368.074C269.809 368.066 269.809 368.057 269.808 368.049C263.035 371.657 255.867 374.113 248.642 373.591C248.513 377.007 248.394 380.425 248.273 383.842C242.71 384.408 235.145 384.688 228.618 384.116C228.727 384.926 228.801 385.743 228.839 386.562C229.785 390.041 228.86 394.356 227.263 397.438C227.019 397.911 226.31 397.615 226.406 397.143C226.837 395.044 227.199 392.921 227.199 390.792C227.199 390.754 227.196 390.715 227.196 390.678C227.08 390.749 226.965 390.82 226.851 390.883C226.916 393.714 226.093 396.727 224.893 399.043C224.884 399.064 224.868 399.075 224.856 399.092C226.897 414.236 231.217 429.633 233.207 444.585C233.259 444.97 233.309 445.356 233.357 445.741C234.907 458.145 234.763 470.228 230.255 481.583C226.172 491.865 223.725 503.103 222.789 514.417C222.767 514.683 222.75 514.948 222.73 515.214C221.874 526.424 222.495 537.687 224.496 548.149H226.005H238.898H240.155V548.146ZM224.802 391.605C224.798 391.606 224.794 391.606 224.79 391.607C224.733 392.622 224.569 393.644 224.33 394.637C224.383 395.165 224.432 395.692 224.493 396.221C224.691 394.95 224.829 393.673 224.83 392.394C224.829 392.13 224.819 391.866 224.802 391.605ZM232.8 272.435H232.296C226.502 272.435 221.788 277.539 221.788 283.813V305.069C221.788 310.157 224.889 314.468 229.152 315.919C229.277 316.371 229.65 316.707 230.109 316.707C230.67 316.707 231.123 316.215 231.123 315.609C231.123 315.003 230.669 314.51 230.109 314.51C229.759 314.51 229.465 314.714 229.283 315.006C225.425 313.632 222.628 309.702 222.628 305.07V283.814C222.628 278.042 226.964 273.346 232.296 273.346H234.298C239.629 273.346 243.966 278.042 243.966 283.814V305.07C243.966 309.556 241.343 313.383 237.673 314.868C237.488 314.65 237.227 314.509 236.933 314.509C236.372 314.509 235.918 315.001 235.918 315.608C235.918 316.214 236.373 316.706 236.933 316.706C237.454 316.706 237.868 316.274 237.925 315.726C241.934 314.123 244.806 309.959 244.806 305.068V283.812C244.806 277.538 240.092 272.434 234.298 272.434H233.794V250.947C233.794 250.058 234.133 249.255 234.676 248.674C234.782 248.561 234.899 248.462 235.019 248.367C235.506 247.985 236.098 247.753 236.744 247.753H240.279H240.285V246.677H240.223H236.744C235.27 246.677 233.998 247.566 233.321 248.866C232.999 249.484 232.799 250.188 232.799 250.947V272.435H232.8ZM256.774 249.387L256.732 249.965C258.887 250.147 260.395 252.852 260.606 255.316L260.616 257.565L260.628 260.229L260.894 321.977C260.906 324.783 263.024 327.067 265.617 327.067C266.634 327.067 267.57 326.706 268.343 326.109C269.535 325.187 270.327 323.691 270.339 321.993L270.596 286.73L269.601 286.721L269.344 321.985C269.337 323.047 268.939 324.009 268.307 324.727C267.627 325.5 266.674 325.989 265.617 325.989C263.57 325.989 261.899 324.187 261.889 321.972L261.632 262.775L261.613 258.406L261.599 255.264C261.353 252.351 259.591 249.129 256.814 248.892C256.813 248.892 256.812 248.892 256.811 248.892L256.774 249.387ZM369.605 282.428C373.246 281.892 375.692 280.412 376.188 276.055C376.191 276.033 376.203 276.018 376.206 275.995C375.818 276.164 375.416 276.321 374.981 276.455C370.838 277.73 366.081 277.9 362.04 276.157C362.067 277.958 362.033 279.768 361.832 281.548C364.313 282.833 366.926 282.822 369.605 282.428ZM356.978 276.358C353.034 277.902 348.468 277.681 344.477 276.454C344.042 276.32 343.639 276.163 343.252 275.994C343.255 276.017 343.267 276.032 343.269 276.054C343.766 280.411 346.212 281.891 349.853 282.427C352.382 282.799 354.851 282.817 357.208 281.737C356.996 279.963 356.956 278.156 356.978 276.358ZM332.936 264.721V263.178V228.577H385.682V314.509H332.936V275.249V267.467C335.205 266.558 338.114 264.978 338.715 263.682C336.763 263.826 334.827 264.18 332.936 264.721ZM361.622 302.1C360.555 302.1 359.357 301.971 358.232 302.064C358.058 302.068 357.883 302.072 357.709 302.075C357.296 302.069 356.963 302.197 356.707 302.406C355.444 302.999 355.485 305.018 356.864 305.481C356.871 305.484 356.878 305.485 356.885 305.487C357.113 305.63 357.383 305.723 357.71 305.728C357.884 305.73 358.058 305.735 358.233 305.74C359.358 305.832 360.556 305.703 361.624 305.703C363.763 305.702 363.766 302.1 361.622 302.1ZM361.622 297.53C360.555 297.53 359.357 297.401 358.232 297.494C358.058 297.498 357.883 297.502 357.709 297.505C357.296 297.499 356.963 297.627 356.707 297.836C355.444 298.429 355.485 300.448 356.864 300.911C356.871 300.914 356.878 300.915 356.885 300.917C357.113 301.06 357.383 301.153 357.71 301.158C357.884 301.16 358.058 301.165 358.233 301.17C359.358 301.262 360.556 301.133 361.624 301.133C363.763 301.133 363.766 297.53 361.622 297.53ZM361.622 292.961C360.555 292.961 359.357 292.832 358.232 292.925C358.058 292.929 357.883 292.933 357.709 292.937C357.296 292.93 356.963 293.058 356.707 293.267C355.444 293.86 355.485 295.879 356.864 296.342C356.871 296.345 356.878 296.346 356.885 296.348C357.113 296.491 357.383 296.584 357.71 296.589C357.884 296.591 358.058 296.597 358.233 296.601C359.358 296.693 360.556 296.564 361.624 296.564C363.763 296.563 363.766 292.961 361.622 292.961ZM361.622 288.391C360.555 288.391 359.357 288.262 358.232 288.355C358.058 288.359 357.883 288.363 357.709 288.367C357.296 288.36 356.963 288.488 356.707 288.697C355.444 289.29 355.485 291.309 356.864 291.772C356.871 291.775 356.878 291.776 356.885 291.778C357.113 291.921 357.383 292.014 357.71 292.019C357.884 292.021 358.058 292.027 358.233 292.031C359.358 292.124 360.556 291.994 361.624 291.994C363.763 291.993 363.766 288.391 361.622 288.391ZM360.829 244.693C360.131 245.338 360.669 246.879 361.617 246.752C364.138 246.414 366.486 245.187 368.994 244.646C372.023 243.99 375.068 243.877 378.144 244.065C380.31 244.198 380.31 240.511 378.144 240.415C372.759 240.175 365.108 240.741 360.829 244.693ZM356.863 236.043C356.87 236.045 356.877 236.046 356.884 236.049C357.112 236.192 357.382 236.284 357.709 236.29C357.883 236.292 358.057 236.297 358.232 236.302C359.357 236.394 360.555 236.265 361.623 236.265C363.763 236.265 363.767 232.663 361.623 232.663C360.556 232.663 359.358 232.534 358.233 232.626C358.059 232.631 357.884 232.635 357.71 232.638C357.297 232.632 356.964 232.76 356.708 232.969C355.444 233.561 355.485 235.58 356.863 236.043ZM356.863 240.838C356.87 240.84 356.877 240.841 356.884 240.844C357.112 240.987 357.382 241.079 357.709 241.085C357.883 241.087 358.057 241.092 358.232 241.097C359.357 241.189 360.555 241.06 361.623 241.06C363.763 241.06 363.767 237.458 361.623 237.458C360.556 237.458 359.358 237.329 358.233 237.421C358.059 237.426 357.884 237.43 357.71 237.433C357.297 237.427 356.964 237.555 356.708 237.764C355.444 238.356 355.485 240.374 356.863 240.838ZM341.269 244.064C344.345 243.877 347.39 243.99 350.419 244.645C352.927 245.187 355.275 246.414 357.796 246.751C358.744 246.878 359.282 245.337 358.584 244.692C354.306 240.741 346.655 240.175 341.269 240.413C339.102 240.51 339.103 244.197 341.269 244.064ZM357.041 264.376C354.102 265.82 351.015 265.807 347.85 265.341C343.441 264.692 340.478 262.899 339.877 257.624C339.692 256.003 337.346 255.93 337.474 257.624C337.86 262.694 339.783 266.221 344.477 267.665C348.52 268.909 353.153 269.113 357.131 267.502C357.15 268.313 357.161 269.119 357.152 269.912C357.139 270.975 357.102 272.059 357.064 273.155C354.118 274.611 351.024 274.598 347.851 274.131C343.442 273.482 340.479 271.689 339.878 266.414C339.693 264.793 337.347 264.72 337.475 266.414C337.775 270.34 339.001 273.335 341.715 275.159C341.445 275.311 341.252 275.597 341.286 276.055C341.606 280.243 343.193 283.155 347.068 284.348C350.445 285.387 354.316 285.542 357.626 284.163C357.841 285.115 358.116 286.054 358.48 286.969C358.76 287.671 360.261 287.671 360.541 286.969C360.929 285.993 361.22 284.993 361.44 283.976C364.833 285.542 368.878 285.428 372.39 284.348C376.266 283.156 377.853 280.243 378.172 276.055C378.207 275.597 378.013 275.31 377.744 275.159C380.458 273.334 381.685 270.34 381.983 266.414C382.112 264.72 379.765 264.793 379.58 266.414C378.98 271.69 376.016 273.482 371.608 274.131C368.35 274.611 365.17 274.624 362.154 273.046C362.085 273.01 362.018 272.987 361.95 272.965C361.914 271.934 361.88 270.914 361.868 269.912C361.859 269.053 361.872 268.18 361.894 267.299C365.968 269.111 370.788 268.956 374.981 267.666C379.674 266.222 381.596 262.695 381.983 257.625C382.112 255.931 379.765 256.004 379.58 257.625C378.98 262.901 376.016 264.693 371.608 265.342C368.35 265.822 365.17 265.835 362.154 264.257C362.096 264.227 362.04 264.21 361.983 264.189C362.034 262.297 362.049 260.392 361.903 258.514C365.975 260.322 370.79 260.166 374.981 258.877C379.674 257.433 381.596 253.906 381.983 248.836C382.112 247.142 379.765 247.215 379.58 248.836C378.98 254.112 376.016 255.904 371.608 256.553C369.125 256.919 366.69 257.008 364.336 256.335C366.422 256.436 368.522 256.032 370.491 255.061C373.874 253.393 376.857 250.266 375.787 245.994C375.467 244.713 373.539 244.949 373.619 246.312C374.037 253.391 364.66 253.976 360.455 252.309C360.309 252.251 360.169 252.233 360.033 252.233C359.696 252.142 359.315 252.144 358.978 252.235C358.887 252.247 358.793 252.271 358.696 252.309C354.491 253.976 345.114 253.391 345.532 246.312C345.612 244.949 343.685 244.713 343.364 245.994C342.295 250.266 345.277 253.392 348.661 255.061C350.746 256.089 352.978 256.485 355.184 256.313C352.812 257.007 350.354 256.921 347.849 256.553C343.44 255.904 340.477 254.112 339.876 248.836C339.691 247.215 337.345 247.142 337.473 248.836C337.859 253.906 339.782 257.433 344.476 258.877C348.508 260.117 353.127 260.326 357.098 258.729C356.967 260.599 356.988 262.494 357.041 264.376Z" fill="#424242"/>
<path d="M325.06 279.57L319.107 272.013C320.341 271.072 321.549 270.165 322.688 269.341C322.695 269.352 322.702 269.363 322.709 269.373C324.992 267.199 327.619 265.523 330.448 264.419C331.198 263.885 332.045 263.481 332.937 263.178V264.721C334.828 264.18 336.764 263.826 338.716 263.682C338.115 264.978 335.206 266.559 332.937 267.467V275.249C331.168 276.365 329.235 276.888 326.932 276.336C326.321 277.424 325.69 278.496 325.06 279.57ZM235.381 553.418L238.519 550.858L238.898 548.146H226.005L226.132 555.232L231.708 554.897C233.017 554.817 234.301 554.301 235.381 553.418ZM259.113 555.232L264.636 554.897C265.933 554.818 267.136 554.302 268.077 553.419L270.808 550.859L270.757 548.147H257.864L259.113 555.232ZM240.285 247.753H240.279C240.281 247.77 240.283 247.785 240.285 247.801C240.399 248.754 240.678 249.614 241.24 250.268C244.166 253.675 247.419 256.752 250.929 259.435C251.784 260.087 252.526 260.512 253.313 260.794C254.594 261.253 255.93 260.244 256.043 258.788L256.396 254.245L256.774 249.387L256.81 248.892C256.811 248.892 256.812 248.892 256.813 248.892L256.943 247.214H259.413C265.314 247.214 270.097 242.035 270.097 235.646V219.505V206.042H254.302L253.312 212.153L250.377 213.788L248.049 226.545H246.051V225.009C246.051 222.873 244.437 221.125 242.464 221.125C240.491 221.125 238.877 222.873 238.877 225.009V227.718C238.877 229.215 239.671 230.518 240.824 231.166C240.824 232.454 240.98 233.7 241.244 234.9C241.168 235.864 241.094 236.829 241.018 237.794C240.929 238.946 240.839 240.097 240.75 241.248C240.631 242.769 240.218 244.809 240.223 246.675H240.285V247.753ZM226.851 390.88C226.966 390.817 227.081 390.745 227.196 390.674C227.196 390.712 227.199 390.751 227.199 390.789C227.198 392.917 226.837 395.041 226.406 397.14C226.31 397.612 227.019 397.907 227.263 397.435C228.86 394.353 229.784 390.038 228.839 386.559C228.801 385.739 228.726 384.923 228.618 384.112C228.294 381.703 227.657 379.342 226.717 377.099C226.728 377.095 226.74 377.091 226.751 377.087C226.247 375.274 225.668 373.333 225.046 371.317L216.17 375.5C216.422 375.823 216.684 376.136 216.939 376.457C217.731 377.459 218.523 378.46 219.335 379.443C218.897 380.286 218.614 381.119 218.453 381.945C217.849 385.046 218.999 388.059 220.518 391.196C220.518 393.324 220.156 395.448 219.725 397.547C219.628 398.019 220.338 398.314 220.582 397.842C221.513 396.046 222.214 393.829 222.453 391.604C222.564 391.619 222.674 391.632 222.782 391.643C222.785 391.759 222.792 391.875 222.792 391.99C222.792 394.119 222.43 396.243 222 398.341C221.902 398.814 222.612 399.109 222.857 398.636C223.472 397.448 223.984 396.072 224.331 394.635C224.57 393.642 224.734 392.62 224.791 391.605C224.795 391.604 224.799 391.604 224.803 391.603C224.819 391.865 224.83 392.128 224.83 392.393C224.83 393.672 224.691 394.948 224.493 396.22C224.361 397.064 224.208 397.907 224.037 398.744C223.945 399.196 224.587 399.478 224.857 399.088C224.869 399.07 224.884 399.059 224.895 399.039C226.093 396.724 226.915 393.711 226.851 390.88Z" fill="#FFD2BB"/>
<path d="M241.244 234.902C241.168 235.867 241.094 236.831 241.018 237.796C238.687 228.727 236.486 219.587 235.708 210.221C235.564 208.5 235.473 206.737 235.904 205.074C236.334 203.411 237.378 201.844 238.888 201.285C238.235 199.722 238.583 197.064 239.409 195.6C240.236 194.137 241.513 193.037 242.84 192.102C250.331 186.824 260.377 186.105 268.445 190.27C271.664 191.933 274.702 194.509 275.931 198.134C277.265 202.065 276.244 206.472 274.743 210.331C273.48 213.577 271.901 216.62 270.097 219.507V206.043H254.302L253.312 212.154L250.377 213.789L248.049 226.546H246.051V225.01C246.051 222.874 244.437 221.126 242.464 221.126C240.491 221.126 238.877 222.874 238.877 225.01V227.719C238.877 229.216 239.671 230.519 240.824 231.167C240.824 232.456 240.98 233.701 241.244 234.902Z" fill="#00CEC9"/>
<path d="M219.334 379.443C218.896 380.286 218.613 381.119 218.452 381.945C218.04 381.759 217.654 381.563 217.305 381.352C217.171 379.692 217.052 378.067 216.938 376.456C217.73 377.459 218.522 378.461 219.334 379.443ZM258.921 256.391C259.527 257.662 260.091 258.943 260.627 260.23L260.615 257.566C260.034 257.105 259.465 256.702 258.921 256.391ZM261.63 262.776C263.215 267.035 264.376 271.436 264.922 276.166C266.207 285.443 266.978 294.617 267.488 303.715L267.489 303.716C267.492 303.77 267.494 303.823 267.497 303.876C267.574 305.268 267.645 306.658 267.711 308.047C267.742 308.718 267.776 309.39 267.805 310.06C267.877 311.698 267.941 313.333 268.001 314.967C268.016 315.365 268.032 315.766 268.046 316.164C268.145 319.025 268.229 321.879 268.303 324.727C268.935 324.009 269.334 323.047 269.341 321.985L269.597 286.721L270.592 286.73L270.335 321.993C270.323 323.69 269.532 325.187 268.339 326.109C268.499 332.423 268.628 338.709 268.8 344.971C268.807 345.221 268.814 345.472 268.82 345.722C268.863 347.261 268.911 348.798 268.962 350.335C268.98 350.882 268.999 351.428 269.018 351.975C269.067 353.365 269.119 354.754 269.176 356.141C269.203 356.788 269.234 357.434 269.263 358.08C269.323 359.413 269.383 360.745 269.453 362.077C269.487 362.727 269.529 363.375 269.565 364.024C269.642 365.365 269.716 366.706 269.805 368.044C269.806 368.053 269.806 368.061 269.807 368.071C269.942 370.102 270.092 372.132 270.261 374.16C270.434 376.215 270.622 378.267 270.836 380.32C271.061 380.131 271.525 379.831 272.1 379.481C274.146 378.237 277.689 376.336 277.689 376.336C275.505 358.13 275.637 334.114 275.228 313.06C279.045 317.668 281.637 320.796 281.637 320.796C283.909 323.539 287.769 323.865 290.407 321.536C293.418 318.876 297.165 315.484 299.446 313.114C309.054 303.131 319 293.18 326.238 281.068L325.057 279.57L319.104 272.013L318.067 270.697C309.001 277.682 298.525 288.054 288.995 295.533C282.803 286.63 276.263 277.522 270.355 268.787C270.183 268.533 269.999 268.266 269.806 267.991C269.805 267.99 269.804 267.988 269.804 267.987C269.339 267.228 268.721 266.402 268.016 265.547C266.131 263.082 263.817 260.373 261.608 258.406L261.63 262.776ZM216.169 375.5L214.395 376.337C205.803 365.31 199.908 352.109 193.888 339.249C191.196 333.499 188.779 327.599 186.683 321.561L219.169 263.691C219.642 262.849 220.215 262.115 220.85 261.47C222.38 257.585 224.624 254.004 227.825 251.695C229.594 250.419 231.437 249.501 233.321 248.865C232.999 249.483 232.799 250.187 232.799 250.946V272.434H232.295C226.501 272.434 221.787 277.538 221.787 283.812V305.068C221.787 310.156 224.889 314.467 229.151 315.918C229.276 316.37 229.649 316.706 230.108 316.706C230.669 316.706 231.122 316.214 231.122 315.608C231.122 315.001 230.668 314.509 230.108 314.509C229.758 314.509 229.464 314.713 229.282 315.005C225.424 313.631 222.627 309.701 222.627 305.069V283.813C222.627 278.041 226.963 273.345 232.295 273.345H234.297C239.628 273.345 243.965 278.041 243.965 283.813V305.069C243.965 309.555 241.343 313.382 237.672 314.867C237.487 314.649 237.226 314.508 236.932 314.508C236.371 314.508 235.918 315 235.918 315.607C235.918 316.213 236.372 316.705 236.932 316.705C237.453 316.705 237.867 316.273 237.924 315.725C241.933 314.122 244.805 309.958 244.805 305.067V283.811C244.805 277.537 240.091 272.433 234.297 272.433H233.793V250.947C233.793 250.058 234.132 249.255 234.675 248.674C245.158 257.362 249.009 272.099 249.009 284.781C250.997 314.383 249.757 343.985 248.639 373.587C248.51 377.004 248.391 380.422 248.27 383.839C242.707 384.405 235.142 384.685 228.615 384.112C228.291 381.703 227.654 379.342 226.714 377.099C226.725 377.095 226.737 377.091 226.748 377.087C226.244 375.274 225.665 373.333 225.043 371.317L216.169 375.5ZM215.732 342.967C215.727 332.858 216.03 323.183 216.448 313.083C214.083 316.609 211.727 320.096 209.394 323.459C210.319 326.781 211.476 330.505 212.753 334.437C213.652 337.206 214.666 340.069 215.732 342.967ZM357.041 264.376C356.989 262.494 356.967 260.599 357.099 258.728C353.128 260.325 348.508 260.116 344.477 258.876C339.784 257.432 337.861 253.905 337.475 248.835C337.345 247.141 339.692 247.214 339.877 248.835C340.478 254.111 343.442 255.903 347.85 256.552C350.355 256.921 352.812 257.005 355.186 256.312C352.978 256.484 350.746 256.088 348.662 255.06C345.278 253.392 342.296 250.265 343.365 245.993C343.685 244.711 345.614 244.948 345.533 246.311C345.115 253.39 354.492 253.975 358.697 252.308C358.794 252.271 358.887 252.247 358.98 252.234C359.316 252.141 359.697 252.14 360.034 252.232C360.17 252.232 360.31 252.25 360.456 252.308C364.661 253.975 374.038 253.39 373.62 246.311C373.54 244.948 375.468 244.711 375.789 245.993C376.858 250.265 373.875 253.391 370.492 255.06C368.523 256.031 366.423 256.434 364.337 256.334C366.69 257.007 369.125 256.918 371.609 256.552C376.017 255.903 378.981 254.111 379.582 248.835C379.767 247.214 382.113 247.141 381.984 248.835C381.598 253.905 379.676 257.432 374.982 258.876C370.792 260.165 365.976 260.321 361.904 258.513C362.05 260.391 362.035 262.296 361.984 264.188C362.041 264.209 362.097 264.225 362.155 264.256C365.171 265.833 368.35 265.82 371.609 265.341C376.017 264.692 378.981 262.899 379.582 257.624C379.767 256.003 382.113 255.93 381.984 257.624C381.598 262.694 379.676 266.221 374.982 267.665C370.789 268.955 365.969 269.11 361.895 267.298C361.874 268.178 361.86 269.052 361.87 269.911C361.881 270.912 361.915 271.933 361.951 272.964C362.019 272.987 362.086 273.009 362.155 273.045C365.171 274.622 368.35 274.609 371.609 274.13C376.017 273.481 378.981 271.688 379.582 266.412C379.767 264.792 382.113 264.719 381.984 266.412C381.685 270.339 380.459 273.334 377.745 275.158C378.014 275.31 378.208 275.596 378.173 276.054C377.854 280.242 376.267 283.154 372.391 284.347C368.879 285.427 364.834 285.542 361.441 283.975C361.221 284.991 360.931 285.991 360.542 286.968C360.262 287.67 358.76 287.67 358.481 286.968C358.117 286.052 357.842 285.113 357.627 284.162C354.317 285.541 350.446 285.386 347.069 284.347C343.194 283.155 341.607 280.242 341.287 276.054C341.253 275.596 341.447 275.309 341.716 275.158C339.002 273.333 337.775 270.339 337.477 266.412C337.347 264.719 339.694 264.792 339.879 266.412C340.48 271.689 343.444 273.481 347.852 274.13C351.025 274.597 354.12 274.61 357.065 273.154C357.103 272.058 357.141 270.974 357.153 269.911C357.162 269.117 357.151 268.313 357.132 267.501C353.154 269.112 348.521 268.909 344.478 267.664C339.785 266.22 337.862 262.693 337.476 257.622C337.346 255.929 339.693 256.002 339.878 257.622C340.479 262.899 343.443 264.691 347.851 265.34C351.015 265.807 354.103 265.82 357.041 264.376ZM361.832 281.547C364.313 282.833 366.926 282.822 369.604 282.428C373.245 281.892 375.691 280.412 376.187 276.055C376.19 276.033 376.202 276.018 376.205 275.995C375.817 276.164 375.415 276.321 374.98 276.455C370.837 277.73 366.08 277.9 362.039 276.157C362.067 277.957 362.033 279.766 361.832 281.547ZM357.209 281.738C356.998 279.963 356.956 278.156 356.979 276.358C353.035 277.902 348.469 277.681 344.478 276.454C344.043 276.32 343.64 276.163 343.253 275.994C343.257 276.017 343.268 276.032 343.27 276.054C343.767 280.411 346.213 281.891 349.854 282.427C352.383 282.8 354.852 282.818 357.209 281.738ZM341.269 244.064C344.346 243.877 347.39 243.99 350.419 244.645C352.927 245.187 355.275 246.414 357.796 246.751C358.744 246.878 359.282 245.337 358.584 244.692C354.306 240.741 346.655 240.175 341.269 240.413C339.103 240.51 339.104 244.197 341.269 244.064ZM361.617 246.752C364.138 246.414 366.486 245.187 368.994 244.646C372.023 243.99 375.068 243.877 378.144 244.065C380.31 244.198 380.31 240.511 378.144 240.415C372.758 240.176 365.107 240.742 360.829 244.694C360.131 245.337 360.67 246.879 361.617 246.752ZM361.622 288.391C360.555 288.391 359.357 288.262 358.232 288.355C358.058 288.359 357.883 288.363 357.709 288.366C357.296 288.36 356.963 288.488 356.707 288.697C355.444 289.29 355.485 291.309 356.864 291.772C356.871 291.775 356.878 291.776 356.885 291.778C357.113 291.921 357.383 292.014 357.71 292.019C357.884 292.021 358.058 292.027 358.233 292.031C359.358 292.123 360.556 291.994 361.624 291.994C363.763 291.993 363.766 288.391 361.622 288.391ZM361.622 292.961C360.555 292.961 359.357 292.832 358.232 292.925C358.058 292.929 357.883 292.933 357.709 292.936C357.296 292.93 356.963 293.058 356.707 293.267C355.444 293.86 355.485 295.879 356.864 296.342C356.871 296.345 356.878 296.346 356.885 296.348C357.113 296.491 357.383 296.584 357.71 296.589C357.884 296.591 358.058 296.597 358.233 296.601C359.358 296.693 360.556 296.564 361.624 296.564C363.763 296.563 363.766 292.961 361.622 292.961ZM361.622 297.53C360.555 297.53 359.357 297.401 358.232 297.494C358.058 297.498 357.883 297.502 357.709 297.505C357.296 297.499 356.963 297.627 356.707 297.836C355.444 298.429 355.485 300.448 356.864 300.911C356.871 300.914 356.878 300.915 356.885 300.917C357.113 301.06 357.383 301.153 357.71 301.158C357.884 301.16 358.058 301.165 358.233 301.17C359.358 301.262 360.556 301.133 361.624 301.133C363.763 301.133 363.766 297.53 361.622 297.53ZM361.622 302.1C360.555 302.1 359.357 301.971 358.232 302.064C358.058 302.068 357.883 302.072 357.709 302.075C357.296 302.069 356.963 302.197 356.707 302.406C355.444 302.999 355.485 305.018 356.864 305.481C356.871 305.483 356.878 305.485 356.885 305.487C357.113 305.63 357.383 305.723 357.71 305.728C357.884 305.73 358.058 305.735 358.233 305.74C359.358 305.832 360.556 305.703 361.624 305.703C363.763 305.702 363.766 302.1 361.622 302.1ZM356.863 240.838C356.87 240.84 356.877 240.841 356.884 240.844C357.112 240.987 357.382 241.079 357.709 241.085C357.883 241.087 358.057 241.092 358.232 241.097C359.357 241.189 360.555 241.06 361.623 241.06C363.763 241.06 363.767 237.458 361.623 237.458C360.556 237.458 359.358 237.329 358.233 237.421C358.059 237.426 357.884 237.43 357.71 237.433C357.297 237.427 356.964 237.555 356.708 237.764C355.444 238.356 355.485 240.374 356.863 240.838ZM356.863 236.043C356.87 236.045 356.877 236.046 356.884 236.049C357.112 236.192 357.382 236.284 357.709 236.29C357.883 236.292 358.057 236.297 358.232 236.302C359.357 236.394 360.555 236.265 361.623 236.265C363.763 236.265 363.767 232.663 361.623 232.663C360.556 232.663 359.358 232.534 358.233 232.626C358.059 232.631 357.884 232.635 357.71 232.638C357.297 232.632 356.964 232.76 356.708 232.969C355.444 233.561 355.485 235.58 356.863 236.043Z" fill="#E84393"/>
<path d="M105.413 389.6C96.0445 363.949 91.1307 336.356 91.1307 307.942C91.1307 266.56 101.538 226.915 120.989 192.488C121.184 192.634 121.386 192.77 121.597 192.896C102.656 226.436 91.7274 265.832 91.7274 307.942C91.7274 336.681 96.8192 364.155 106.072 389.367C105.845 389.436 105.625 389.513 105.413 389.6ZM296 86.7626C375.921 86.7626 445.257 136.725 478.798 209.31C479.013 209.197 479.238 209.096 479.47 209.003C469.714 187.844 456.759 168.299 440.864 151.088C402.169 109.19 350.722 86.1165 296 86.1165C241.278 86.1165 189.83 109.19 151.136 151.088C143.508 159.347 136.567 168.149 130.321 177.403C130.519 177.553 130.707 177.711 130.887 177.879C168.067 122.695 228.226 86.7626 296 86.7626ZM112.845 405.799C112.643 405.936 112.431 406.061 112.212 406.177C122.004 427.607 135.065 447.395 151.136 464.796C171.834 487.207 196.183 504.225 222.729 515.21C222.749 514.944 222.766 514.679 222.788 514.413C174.813 494.399 135.508 455.329 112.845 405.799ZM272.12 528.274C272.131 528.054 272.149 527.836 272.173 527.618C271.948 527.59 271.726 527.55 271.503 527.521C271.506 527.744 271.509 527.967 271.513 528.19C271.715 528.217 271.917 528.248 272.12 528.274ZM250.315 523.509C248.116 522.963 245.931 522.378 243.76 521.755C243.723 521.996 243.688 522.238 243.652 522.479C245.902 523.119 248.164 523.72 250.438 524.275C250.399 524.02 250.353 523.765 250.315 523.509ZM296 529.122C293.39 529.122 290.793 529.066 288.206 528.961C288.203 529.172 288.196 529.383 288.182 529.594C290.781 529.698 293.385 529.768 296 529.768C350.722 529.768 402.169 506.694 440.864 464.797C479.558 422.9 500.868 367.193 500.868 307.943C500.868 279.258 495.86 251.41 486.316 225.552C486.111 225.665 485.899 225.768 485.679 225.862C495.085 251.254 500.272 278.954 500.272 307.943C500.272 429.902 408.636 529.122 296 529.122ZM86.4635 568.595C81.2722 557.868 76.1028 547.13 70.5993 536.592C70.1229 539.484 69.9399 542.41 70.0086 545.326C72.1527 549.998 74.7762 554.457 76.8338 559.153C78.3295 562.566 79.7586 566.012 81.1638 569.469H86.8891C86.7469 569.177 86.6047 568.887 86.4635 568.595ZM88.0597 506.764C86.5092 508.034 85.0314 509.405 83.6361 510.866C84.6843 514.322 85.7385 517.777 86.8842 521.198C87.5604 523.219 84.5879 524.082 83.9186 522.083C82.9758 519.269 82.0987 516.431 81.2315 513.59C80.7054 514.227 80.1823 514.868 79.686 515.531C85.8419 533.255 90.9984 551.351 96.1012 569.469H97.224C92.9506 548.83 90.0795 527.856 88.0597 506.764ZM77.52 518.667C76.3137 520.563 75.2346 522.548 74.2899 524.605C76.4439 529.007 78.5881 533.415 80.5622 537.914C81.4075 539.842 78.7552 541.529 77.9068 539.595C76.258 535.837 74.4957 532.143 72.7106 528.461C72.3118 529.576 71.9508 530.707 71.6356 531.856C78.0958 544.028 84.0648 556.492 90.0914 568.925C90.1799 569.107 90.2704 569.287 90.3589 569.469H92.9188C88.1213 552.408 83.2543 535.375 77.52 518.667ZM115.939 496.54C115.73 496.536 115.521 496.523 115.311 496.523C111.656 496.514 108.034 497.05 104.521 498.049C103.634 511.184 103.151 524.325 104.287 537.503C104.471 539.639 101.394 539.619 101.212 537.503C100.106 524.67 100.536 511.868 101.377 499.077C97.7123 500.435 94.2007 502.297 90.9397 504.587C92.9814 526.415 95.9092 548.122 100.362 569.47H107.505C106.965 545.101 111.599 520.793 115.939 496.54ZM138.552 552.34C141.944 542.789 145.322 533.173 149.472 523.972C150.463 521.774 151.486 519.574 152.489 517.361C152.017 516.688 151.53 516.028 151.028 515.381C149.642 518.193 148.279 521.018 146.962 523.871C142.43 533.679 138.316 543.687 134.199 553.705C132.128 558.747 129.766 564.037 127.516 569.468H132.678C134.587 563.741 136.533 558.026 138.552 552.34ZM130.064 522.12C132.282 515.658 134.65 509.263 137.154 502.933C134.69 501.437 132.106 500.19 129.447 499.192C126.347 509.141 123.621 519.206 121.965 529.597C121.629 531.708 118.666 530.807 118.999 528.712C120.661 518.285 123.4 508.185 126.514 498.204C124.041 497.473 121.513 496.96 118.952 496.71C114.591 520.902 109.942 545.182 110.537 569.47H116.411C119.629 553.277 124.819 537.4 130.064 522.12ZM131.001 553.34C135.601 542.22 140.138 531.086 145.226 520.214C146.4 517.706 147.621 515.228 148.857 512.76C148.174 511.987 147.469 511.236 146.744 510.509C144.521 514.395 142.294 518.277 139.929 522.065C138.826 523.833 136.162 522.164 137.273 520.384C139.745 516.423 142.069 512.362 144.393 508.3C142.923 506.999 141.389 505.783 139.795 504.669C137.409 510.719 135.148 516.831 133.029 523.006C127.885 537.991 122.763 553.579 119.551 569.47H124.196C126.462 563.915 128.865 558.504 131.001 553.34ZM161.812 547.624C161.864 543.685 161.499 539.74 160.663 535.876C160.624 535.699 160.577 535.525 160.537 535.348C156.138 540.781 152.326 546.619 150.107 553.389C149.449 555.397 146.479 554.527 147.142 552.504C149.741 544.571 154.347 537.901 159.555 531.681C158.324 527.724 156.611 523.959 154.507 520.462C149.959 530.484 146.004 540.686 142.276 551.101C140.094 557.196 137.997 563.325 135.944 569.47H144.958C150.183 561.871 156.016 554.664 161.812 547.624ZM407.174 568.595C401.982 557.868 396.813 547.13 391.31 536.592C390.833 539.484 390.65 542.41 390.719 545.326C392.863 549.998 395.486 554.457 397.544 559.153C399.04 562.566 400.469 566.012 401.874 569.469H407.599C407.457 569.177 407.315 568.887 407.174 568.595ZM408.77 506.764C407.219 508.034 405.742 509.405 404.346 510.866C405.395 514.322 406.449 517.777 407.594 521.198C408.271 523.219 405.298 524.082 404.629 522.083C403.686 519.269 402.809 516.431 401.942 513.59C401.416 514.227 400.892 514.868 400.396 515.531C406.552 533.255 411.709 551.351 416.811 569.469H417.934C413.661 548.83 410.79 527.856 408.77 506.764ZM398.229 518.667C397.023 520.563 395.944 522.548 394.999 524.605C397.153 529.007 399.297 533.415 401.271 537.914C402.117 539.842 399.464 541.529 398.616 539.595C396.967 535.837 395.205 532.143 393.42 528.461C393.021 529.576 392.66 530.707 392.345 531.856C398.805 544.028 404.774 556.492 410.801 568.925C410.889 569.107 410.98 569.287 411.068 569.469H413.628C408.832 552.408 403.965 535.375 398.229 518.667ZM436.65 496.54C436.44 496.536 436.231 496.523 436.021 496.523C432.366 496.514 428.744 497.05 425.231 498.049C424.345 511.184 423.861 524.325 424.997 537.503C425.181 539.639 422.104 539.619 421.922 537.503C420.816 524.67 421.246 511.868 422.087 499.077C418.422 500.435 414.911 502.297 411.65 504.587C413.692 526.415 416.619 548.122 421.072 569.47H428.215C427.675 545.101 432.31 520.793 436.65 496.54ZM459.262 552.34C462.655 542.789 466.032 533.173 470.182 523.972C471.174 521.774 472.196 519.574 473.199 517.361C472.727 516.688 472.241 516.028 471.738 515.381C470.352 518.193 468.99 521.018 467.672 523.871C463.14 533.679 459.026 543.687 454.91 553.705C452.838 558.747 450.476 564.037 448.227 569.468H453.388C455.297 563.741 457.243 558.026 459.262 552.34ZM450.774 522.12C452.992 515.658 455.36 509.263 457.864 502.933C455.4 501.437 452.816 500.19 450.157 499.192C447.057 509.141 444.331 519.206 442.675 529.597C442.339 531.708 439.377 530.807 439.71 528.712C441.371 518.285 444.11 508.185 447.224 498.204C444.751 497.473 442.223 496.96 439.662 496.71C435.301 520.902 430.652 545.182 431.248 569.47H437.121C440.339 553.277 445.529 537.4 450.774 522.12ZM451.711 553.34C456.311 542.22 460.849 531.086 465.937 520.214C467.11 517.706 468.331 515.228 469.567 512.76C468.884 511.987 468.179 511.236 467.454 510.509C465.231 514.395 463.004 518.277 460.639 522.065C459.536 523.833 456.873 522.164 457.984 520.384C460.455 516.423 462.779 512.362 465.103 508.3C463.633 506.999 462.099 505.783 460.506 504.669C458.119 510.719 455.858 516.831 453.739 523.006C448.596 537.991 443.473 553.579 440.262 569.47H444.906C447.172 563.915 449.575 558.504 451.711 553.34ZM482.522 547.624C482.574 543.685 482.209 539.74 481.373 535.876C481.334 535.699 481.288 535.525 481.247 535.348C476.848 540.781 473.035 546.619 470.818 553.389C470.159 555.397 467.19 554.527 467.852 552.504C470.452 544.571 475.057 537.901 480.265 531.681C479.034 527.724 477.322 523.959 475.217 520.462C470.669 530.484 466.714 540.686 462.986 551.101C460.804 557.196 458.708 563.325 456.654 569.47H465.668C470.893 561.871 476.726 554.664 482.522 547.624Z" fill="#FF0000"/>
<path d="M362.532 443.021C362.415 442.789 362.495 442.498 362.709 442.37C363.744 441.76 364.771 441.135 365.792 440.496C366.001 440.362 366.274 440.441 366.396 440.672C366.52 440.9 366.446 441.195 366.234 441.327C365.209 441.969 364.175 442.598 363.132 443.214C363.065 443.253 362.992 443.272 362.921 443.272C362.765 443.271 362.612 443.182 362.532 443.021ZM399.061 207.414C399.168 207.414 399.277 207.372 399.361 207.287C399.541 207.107 399.552 206.803 399.386 206.609C398.581 205.663 397.766 204.727 396.939 203.802C396.769 203.613 396.489 203.607 396.313 203.792C396.137 203.976 396.132 204.279 396.303 204.47C397.124 205.389 397.934 206.319 398.735 207.259C398.823 207.362 398.941 207.414 399.061 207.414ZM393.872 418.01C393.959 418.106 394.074 418.154 394.189 418.154C394.301 418.154 394.413 418.107 394.499 418.016C395.346 417.112 396.183 416.199 397.008 415.274C397.179 415.084 397.173 414.78 396.998 414.596C396.822 414.412 396.541 414.417 396.372 414.607C395.551 415.526 394.72 416.434 393.877 417.331C393.703 417.518 393.701 417.822 393.872 418.01ZM354.203 447.996C354.265 447.996 354.327 447.982 354.387 447.953C355.466 447.419 356.537 446.87 357.601 446.307C357.821 446.19 357.911 445.903 357.804 445.665C357.696 445.426 357.428 445.33 357.211 445.445C356.155 446.005 355.09 446.55 354.018 447.08C353.795 447.191 353.698 447.475 353.799 447.716C353.874 447.893 354.035 447.996 354.203 447.996ZM371.557 437.82C372.557 437.128 373.549 436.423 374.532 435.702C374.735 435.555 374.789 435.257 374.651 435.036C374.514 434.816 374.238 434.758 374.035 434.908C373.059 435.622 372.074 436.324 371.08 437.011C370.873 437.154 370.812 437.45 370.943 437.673C371.028 437.816 371.172 437.895 371.317 437.895C371.401 437.896 371.482 437.871 371.557 437.82ZM386.653 425.138C386.741 425.249 386.865 425.306 386.989 425.306C387.092 425.306 387.193 425.268 387.278 425.19C388.181 424.354 389.073 423.504 389.955 422.646C390.138 422.468 390.152 422.166 389.989 421.969C389.825 421.769 389.543 421.754 389.363 421.932C388.486 422.787 387.599 423.631 386.701 424.461C386.516 424.633 386.494 424.936 386.653 425.138ZM379.618 431.801C380.572 431.035 381.517 430.256 382.452 429.464C382.645 429.302 382.679 428.999 382.528 428.791C382.377 428.579 382.098 428.545 381.907 428.708C380.977 429.495 380.039 430.269 379.091 431.03C378.894 431.187 378.853 431.489 379 431.701C379.086 431.827 379.22 431.895 379.356 431.895C379.446 431.896 379.539 431.865 379.618 431.801ZM392.199 199.882C392.316 199.882 392.433 199.831 392.521 199.731C392.689 199.538 392.681 199.235 392.504 199.053C391.641 198.168 390.766 197.296 389.881 196.436C389.702 196.259 389.419 196.274 389.256 196.471C389.093 196.668 389.107 196.972 389.29 197.149C390.168 198.005 391.036 198.872 391.894 199.749C391.979 199.838 392.089 199.882 392.199 199.882ZM412.57 393.611C412.646 393.665 412.73 393.691 412.815 393.691C412.958 393.691 413.098 393.614 413.185 393.476C413.841 392.402 414.487 391.318 415.119 390.226C415.249 390.001 415.185 389.705 414.979 389.565C414.772 389.425 414.497 389.492 414.368 389.717C413.739 390.804 413.099 391.879 412.446 392.946C412.31 393.166 412.367 393.464 412.57 393.611ZM416.518 232.814C416.595 232.814 416.673 232.792 416.744 232.747C416.954 232.611 417.024 232.317 416.899 232.089C416.293 230.984 415.676 229.888 415.045 228.801C414.914 228.577 414.641 228.51 414.435 228.65C414.227 228.79 414.164 229.086 414.294 229.311C414.921 230.391 415.536 231.481 416.138 232.58C416.22 232.73 416.368 232.814 416.518 232.814ZM411.25 223.919C411.338 223.919 411.425 223.891 411.502 223.834C411.704 223.684 411.753 223.385 411.614 223.167C410.939 222.108 410.252 221.06 409.552 220.023C409.406 219.81 409.129 219.763 408.932 219.919C408.735 220.075 408.691 220.376 408.836 220.59C409.532 221.621 410.214 222.662 410.885 223.713C410.972 223.847 411.11 223.919 411.25 223.919ZM406.863 402.209C406.944 402.277 407.04 402.308 407.134 402.308C407.266 402.308 407.398 402.244 407.485 402.121C408.209 401.099 408.922 400.068 409.622 399.026C409.765 398.813 409.723 398.512 409.525 398.356C409.328 398.201 409.049 398.248 408.906 398.462C408.21 399.497 407.502 400.522 406.783 401.536C406.633 401.747 406.67 402.049 406.863 402.209ZM405.42 215.439C405.518 215.439 405.615 215.405 405.698 215.334C405.888 215.168 405.921 214.867 405.768 214.66C405.026 213.655 404.272 212.66 403.508 211.677C403.35 211.475 403.07 211.45 402.884 211.62C402.697 211.79 402.673 212.093 402.83 212.296C403.591 213.273 404.339 214.26 405.075 215.259C405.162 215.377 405.29 215.439 405.42 215.439ZM400.62 410.356C400.704 410.438 400.809 410.477 400.913 410.477C401.036 410.477 401.157 410.423 401.245 410.314C402.033 409.351 402.809 408.376 403.574 407.389C403.731 407.186 403.707 406.884 403.519 406.713C403.332 406.543 403.053 406.57 402.895 406.773C402.136 407.752 401.365 408.721 400.581 409.679C400.419 409.877 400.437 410.181 400.62 410.356ZM209.797 429.547C209.929 429.547 210.06 429.484 210.147 429.363C210.297 429.155 210.263 428.854 210.07 428.69C209.14 427.901 208.218 427.1 207.306 426.287C207.118 426.118 206.837 426.149 206.682 426.351C206.526 426.556 206.553 426.858 206.742 427.026C207.659 427.846 208.587 428.652 209.524 429.445C209.605 429.514 209.702 429.547 209.797 429.547ZM417.713 384.598C417.783 384.64 417.858 384.659 417.931 384.659C418.085 384.659 418.235 384.572 418.317 384.416C418.903 383.294 419.477 382.165 420.038 381.027C420.153 380.792 420.07 380.503 419.855 380.378C419.639 380.255 419.371 380.341 419.255 380.576C418.698 381.707 418.127 382.831 417.545 383.944C417.425 384.175 417.501 384.468 417.713 384.598ZM202.311 422.74C202.433 422.74 202.553 422.686 202.641 422.581C202.804 422.384 202.79 422.081 202.608 421.904C201.73 421.048 200.862 420.179 200.005 419.299C199.828 419.119 199.548 419.126 199.379 419.318C199.211 419.509 199.218 419.813 199.396 419.996C200.259 420.881 201.131 421.753 202.014 422.616C202.099 422.699 202.205 422.74 202.311 422.74ZM217.705 435.777C217.847 435.777 217.987 435.702 218.072 435.566C218.209 435.346 218.156 435.048 217.953 434.899C216.973 434.181 216.002 433.452 215.039 432.709C214.84 432.556 214.564 432.607 214.421 432.821C214.279 433.036 214.326 433.337 214.525 433.489C215.493 434.237 216.471 434.972 217.457 435.694C217.533 435.751 217.62 435.777 217.705 435.777ZM277.956 459.463C277.718 459.431 277.491 459.616 277.46 459.878C277.429 460.141 277.6 460.382 277.842 460.415C279.019 460.579 280.199 460.729 281.385 460.86C281.401 460.862 281.416 460.863 281.431 460.863C281.654 460.863 281.847 460.679 281.871 460.433C281.896 460.17 281.719 459.934 281.475 459.907C280.298 459.774 279.124 459.627 277.956 459.463ZM195.281 415.389C195.392 415.389 195.503 415.344 195.59 415.255C195.766 415.071 195.77 414.767 195.6 414.576C194.78 413.657 193.97 412.727 193.172 411.785C193.006 411.589 192.725 411.577 192.545 411.756C192.365 411.935 192.353 412.239 192.519 412.433C193.322 413.382 194.138 414.319 194.963 415.244C195.05 415.341 195.165 415.389 195.281 415.389ZM345.193 452.054C345.244 452.054 345.297 452.044 345.349 452.022C346.463 451.57 347.571 451.102 348.672 450.62C348.898 450.521 349.009 450.241 348.916 449.996C348.824 449.75 348.564 449.633 348.339 449.731C347.245 450.211 346.145 450.674 345.038 451.125C344.808 451.218 344.693 451.495 344.779 451.742C344.846 451.935 345.014 452.054 345.193 452.054ZM225.777 441.334C225.846 441.378 225.923 441.399 225.998 441.399C226.151 441.399 226.301 441.312 226.382 441.159C226.506 440.93 226.432 440.635 226.221 440.504C225.196 439.862 224.179 439.206 223.172 438.536C222.963 438.398 222.69 438.47 222.562 438.696C222.434 438.922 222.5 439.217 222.709 439.356C223.723 440.028 224.745 440.688 225.777 441.334ZM291.178 461.586C291.415 461.586 291.612 461.381 291.62 461.122C291.628 460.858 291.437 460.635 291.193 460.626C290.009 460.583 288.83 460.524 287.653 460.45C287.415 460.426 287.2 460.636 287.185 460.901C287.171 461.165 287.357 461.393 287.601 461.408C288.785 461.483 289.971 461.544 291.163 461.587C291.168 461.586 291.173 461.586 291.178 461.586ZM335.93 455.422C335.972 455.422 336.014 455.415 336.056 455.403C337.198 455.036 338.333 454.653 339.46 454.256C339.693 454.173 339.82 453.903 339.745 453.652C339.668 453.4 339.419 453.263 339.187 453.344C338.065 453.739 336.937 454.119 335.804 454.483C335.569 454.558 335.436 454.825 335.505 455.08C335.562 455.286 335.739 455.422 335.93 455.422ZM316.928 459.997C318.107 459.808 319.279 459.601 320.448 459.379C320.689 459.333 320.85 459.085 320.808 458.825C320.766 458.562 320.522 458.382 320.296 458.435C319.134 458.655 317.968 458.86 316.799 459.05C316.556 459.089 316.389 459.333 316.426 459.595C316.458 459.834 316.648 460.004 316.863 460.004C316.883 460.003 316.906 460.001 316.928 459.997ZM326.47 458.075C326.501 458.075 326.534 458.072 326.567 458.064C327.729 457.786 328.886 457.491 330.038 457.18C330.274 457.117 330.42 456.856 330.361 456.599C330.301 456.342 330.061 456.185 329.824 456.249C328.68 456.557 327.531 456.851 326.375 457.128C326.136 457.185 325.985 457.442 326.038 457.701C326.084 457.923 326.268 458.075 326.47 458.075ZM297.4 461.666C298.591 461.653 299.778 461.625 300.962 461.581C301.205 461.572 301.397 461.35 301.389 461.085C301.379 460.821 301.171 460.62 300.931 460.622C299.755 460.666 298.576 460.694 297.392 460.707C297.148 460.71 296.951 460.927 296.954 461.192C296.957 461.455 297.155 461.666 297.397 461.666C297.398 461.666 297.399 461.666 297.4 461.666ZM307.189 461.199C308.378 461.098 309.561 460.98 310.739 460.847C310.983 460.82 311.16 460.584 311.134 460.32C311.109 460.057 310.886 459.861 310.648 459.893C309.476 460.025 308.3 460.143 307.119 460.243C306.876 460.263 306.693 460.494 306.713 460.759C306.731 461.01 306.925 461.201 307.153 461.201C307.165 461.201 307.178 461.2 307.189 461.199ZM329.78 161.907C329.536 161.843 329.303 162.001 329.244 162.258C329.185 162.515 329.331 162.775 329.567 162.838C330.716 163.145 331.859 163.467 332.996 163.805C333.036 163.816 333.075 163.823 333.114 163.823C333.309 163.823 333.487 163.683 333.541 163.469C333.606 163.214 333.467 162.949 333.232 162.879C332.085 162.54 330.935 162.216 329.78 161.907ZM197.401 201.245C196.554 202.148 195.719 203.063 194.893 203.989C194.723 204.179 194.728 204.483 194.904 204.667C194.991 204.757 195.101 204.802 195.212 204.802C195.328 204.802 195.443 204.752 195.531 204.655C196.351 203.736 197.182 202.826 198.022 201.929C198.196 201.742 198.198 201.439 198.026 201.25C197.855 201.061 197.574 201.06 197.401 201.245ZM186.145 404.376C186.886 405.383 187.639 406.376 188.402 407.361C188.49 407.474 188.615 407.532 188.742 407.532C188.842 407.532 188.943 407.495 189.026 407.42C189.213 407.25 189.238 406.947 189.08 406.745C188.321 405.766 187.572 404.777 186.836 403.779C186.683 403.571 186.404 403.538 186.214 403.704C186.024 403.867 185.993 404.169 186.145 404.376ZM190.661 208.954C189.874 209.919 189.1 210.894 188.335 211.881C188.178 212.083 188.203 212.386 188.389 212.557C188.472 212.632 188.573 212.669 188.674 212.669C188.801 212.669 188.926 212.611 189.014 212.498C189.774 211.518 190.545 210.548 191.325 209.589C191.487 209.39 191.469 209.087 191.285 208.912C191.103 208.736 190.823 208.756 190.661 208.954ZM204.615 194.065C203.714 194.901 202.822 195.751 201.939 196.612C201.757 196.789 201.744 197.093 201.908 197.29C201.995 197.394 202.116 197.448 202.237 197.448C202.343 197.448 202.449 197.407 202.533 197.324C203.41 196.468 204.296 195.625 205.192 194.793C205.378 194.62 205.399 194.318 205.24 194.116C205.081 193.916 204.801 193.892 204.615 194.065ZM180.419 395.195C180.217 395.346 180.166 395.645 180.305 395.862C180.979 396.921 181.667 397.97 182.365 399.008C182.452 399.137 182.587 399.206 182.724 399.206C182.814 399.206 182.906 399.176 182.984 399.114C183.182 398.958 183.226 398.658 183.082 398.445C182.388 397.412 181.705 396.371 181.035 395.318C180.896 395.1 180.619 395.045 180.419 395.195ZM185.051 217.063C184.857 216.903 184.579 216.943 184.429 217.153C183.706 218.175 182.995 219.207 182.295 220.25C182.151 220.464 182.196 220.764 182.393 220.919C182.471 220.981 182.563 221.011 182.652 221.011C182.789 221.011 182.925 220.942 183.011 220.813C183.706 219.777 184.413 218.752 185.132 217.735C185.282 217.526 185.245 217.225 185.051 217.063ZM175.185 386.278C174.975 386.413 174.905 386.707 175.029 386.936C175.634 388.043 176.252 389.139 176.881 390.226C176.966 390.372 177.11 390.451 177.257 390.451C177.338 390.451 177.419 390.428 177.492 390.378C177.699 390.238 177.761 389.941 177.632 389.717C177.006 388.637 176.393 387.546 175.792 386.447C175.668 386.22 175.396 386.143 175.185 386.278ZM212.268 187.442C211.315 188.21 210.371 188.991 209.437 189.782C209.244 189.946 209.21 190.247 209.361 190.455C209.449 190.576 209.579 190.639 209.71 190.639C209.806 190.639 209.902 190.606 209.984 190.537C210.912 189.75 211.85 188.975 212.797 188.212C212.994 188.054 213.034 187.754 212.889 187.541C212.742 187.328 212.464 187.283 212.268 187.442ZM179.351 225.669C179.148 225.522 178.872 225.583 178.738 225.805C178.082 226.881 177.438 227.964 176.807 229.057C176.677 229.282 176.74 229.578 176.947 229.718C177.02 229.768 177.101 229.791 177.181 229.791C177.329 229.791 177.474 229.712 177.557 229.566C178.185 228.48 178.824 227.403 179.477 226.335C179.612 226.113 179.555 225.816 179.351 225.669ZM265.297 161.124C264.135 161.404 262.978 161.7 261.827 162.012C261.589 162.077 261.445 162.338 261.505 162.594C261.556 162.812 261.736 162.958 261.934 162.958C261.97 162.958 262.006 162.954 262.042 162.944C263.186 162.635 264.335 162.341 265.49 162.061C265.729 162.003 265.879 161.746 265.826 161.488C265.772 161.23 265.537 161.067 265.297 161.124ZM271.414 159.803C271.173 159.849 271.012 160.098 271.055 160.358C271.093 160.591 271.28 160.755 271.491 160.755C271.516 160.755 271.542 160.753 271.568 160.747C272.729 160.525 273.894 160.319 275.065 160.129C275.307 160.09 275.474 159.845 275.438 159.583C275.401 159.321 275.18 159.146 274.934 159.179C273.754 159.371 272.582 159.579 271.414 159.803ZM255.81 163.797C254.67 164.164 253.535 164.548 252.406 164.947C252.174 165.029 252.046 165.3 252.123 165.552C252.183 165.754 252.357 165.882 252.544 165.882C252.59 165.882 252.636 165.875 252.682 165.859C253.802 165.462 254.93 165.082 256.063 164.716C256.298 164.641 256.431 164.374 256.361 164.12C256.291 163.866 256.044 163.72 255.81 163.797ZM228.743 176.014C227.702 176.63 226.669 177.26 225.643 177.904C225.431 178.037 225.359 178.33 225.482 178.56C225.565 178.713 225.713 178.799 225.866 178.799C225.942 178.799 226.018 178.778 226.088 178.734C227.106 178.095 228.134 177.469 229.168 176.856C229.383 176.729 229.461 176.437 229.344 176.206C229.227 175.972 228.957 175.886 228.743 176.014ZM246.52 167.185C245.406 167.64 244.299 168.108 243.199 168.592C242.972 168.692 242.863 168.972 242.956 169.216C243.026 169.403 243.191 169.516 243.366 169.516C243.422 169.516 243.479 169.505 243.532 169.48C244.625 169 245.725 168.534 246.832 168.082C247.061 167.989 247.177 167.713 247.091 167.464C247.004 167.217 246.75 167.092 246.52 167.185ZM220.324 181.415C219.324 182.108 218.333 182.815 217.35 183.536C217.147 183.684 217.095 183.983 217.232 184.202C217.317 184.339 217.458 184.413 217.599 184.413C217.684 184.413 217.771 184.386 217.846 184.33C218.823 183.615 219.808 182.913 220.8 182.224C221.007 182.081 221.067 181.785 220.934 181.562C220.804 181.338 220.529 181.271 220.324 181.415ZM237.486 171.263C236.408 171.8 235.337 172.349 234.274 172.913C234.054 173.029 233.963 173.318 234.071 173.555C234.148 173.725 234.305 173.823 234.469 173.823C234.535 173.823 234.602 173.808 234.664 173.774C235.721 173.213 236.785 172.667 237.856 172.135C238.078 172.025 238.176 171.74 238.074 171.499C237.971 171.259 237.709 171.155 237.486 171.263ZM159.851 273.985C159.615 273.921 159.374 274.083 159.318 274.341C159.045 275.591 158.785 276.847 158.54 278.109C158.49 278.368 158.643 278.622 158.882 278.677C158.913 278.684 158.943 278.688 158.973 278.688C159.178 278.688 159.363 278.533 159.407 278.307C159.65 277.054 159.908 275.806 160.181 274.563C160.237 274.304 160.09 274.046 159.851 273.985ZM157.901 284.352C157.657 284.303 157.432 284.486 157.392 284.747C157.199 286.015 157.022 287.288 156.859 288.565C156.825 288.827 156.994 289.07 157.237 289.105C157.257 289.108 157.278 289.109 157.298 289.109C157.515 289.109 157.705 288.936 157.736 288.695C157.898 287.425 158.075 286.161 158.266 284.901C158.306 284.642 158.142 284.395 157.901 284.352ZM156.317 320.784C156.327 320.784 156.338 320.784 156.348 320.783C156.591 320.765 156.776 320.535 156.759 320.27C156.677 318.997 156.609 317.721 156.556 316.44C156.545 316.175 156.334 315.96 156.093 315.982C155.849 315.994 155.66 316.218 155.671 316.483C155.723 317.772 155.792 319.057 155.874 320.337C155.891 320.59 156.086 320.784 156.317 320.784ZM157.336 331.305C157.357 331.305 157.377 331.303 157.398 331.301C157.641 331.265 157.81 331.022 157.775 330.76C157.612 329.496 157.462 328.228 157.327 326.954C157.299 326.691 157.08 326.5 156.837 326.532C156.593 326.562 156.419 326.8 156.447 327.063C156.583 328.344 156.734 329.62 156.898 330.892C156.93 331.132 157.119 331.305 157.336 331.305ZM281.12 158.323C280.877 158.351 280.701 158.587 280.727 158.851C280.75 159.097 280.942 159.281 281.166 159.281C281.182 159.281 281.197 159.279 281.213 159.277C282.384 159.144 283.56 159.026 284.741 158.924C284.985 158.903 285.167 158.672 285.148 158.407C285.128 158.143 284.92 157.947 284.671 157.967C283.482 158.07 282.299 158.189 281.12 158.323ZM159.031 341.726C159.061 341.726 159.093 341.723 159.123 341.715C159.363 341.66 159.515 341.405 159.465 341.146C159.219 339.897 158.988 338.643 158.772 337.383C158.728 337.122 158.496 336.951 158.256 337C158.016 337.047 157.856 337.299 157.901 337.56C158.119 338.827 158.352 340.089 158.598 341.346C158.643 341.571 158.827 341.726 159.031 341.726ZM231.663 443.737C231.445 443.615 231.178 443.706 231.065 443.942C230.952 444.177 231.036 444.466 231.253 444.588C231.949 444.98 232.654 445.357 233.357 445.737C233.309 445.352 233.259 444.966 233.207 444.581C232.692 444.301 232.174 444.026 231.663 443.737ZM162.47 263.792C162.235 263.711 161.988 263.853 161.915 264.106C161.56 265.332 161.22 266.566 160.894 267.805C160.827 268.06 160.963 268.325 161.198 268.398C161.239 268.41 161.279 268.416 161.32 268.416C161.513 268.416 161.69 268.28 161.746 268.069C162.07 266.837 162.408 265.611 162.76 264.392C162.833 264.139 162.704 263.87 162.47 263.792ZM160.971 351.643C161.027 351.854 161.204 351.991 161.397 351.991C161.438 351.991 161.478 351.986 161.52 351.973C161.755 351.899 161.891 351.633 161.823 351.379C161.498 350.152 161.187 348.918 160.889 347.678C160.827 347.422 160.585 347.27 160.349 347.335C160.112 347.403 159.97 347.663 160.031 347.921C160.33 349.167 160.643 350.408 160.971 351.643ZM156.299 299.635C156.53 299.635 156.725 299.442 156.741 299.188C156.821 297.909 156.916 296.635 157.025 295.365C157.048 295.101 156.869 294.867 156.625 294.842C156.385 294.818 156.166 295.012 156.143 295.276C156.034 296.555 155.937 297.837 155.856 299.125C155.84 299.389 156.025 299.618 156.269 299.636C156.278 299.634 156.288 299.635 156.299 299.635ZM169.676 244.077C169.454 243.965 169.191 244.065 169.085 244.304C168.574 245.468 168.076 246.64 167.591 247.82C167.491 248.061 167.592 248.346 167.815 248.453C167.874 248.481 167.935 248.494 167.995 248.494C168.165 248.494 168.327 248.389 168.401 248.21C168.882 247.037 169.378 245.873 169.886 244.717C169.991 244.478 169.898 244.191 169.676 244.077ZM166.509 367.384C166.283 367.486 166.175 367.767 166.27 368.012C166.725 369.197 167.195 370.375 167.677 371.545C167.751 371.723 167.913 371.829 168.082 371.829C168.141 371.829 168.203 371.816 168.262 371.788C168.486 371.679 168.586 371.395 168.486 371.154C168.006 369.991 167.54 368.82 167.086 367.642C166.995 367.397 166.734 367.285 166.509 367.384ZM170.54 376.991C170.321 377.111 170.233 377.399 170.343 377.635C170.874 378.784 171.419 379.925 171.976 381.056C172.057 381.219 172.209 381.31 172.368 381.31C172.438 381.31 172.509 381.292 172.576 381.254C172.792 381.13 172.873 380.839 172.759 380.605C172.205 379.481 171.664 378.348 171.135 377.207C171.026 376.969 170.76 376.874 170.54 376.991ZM155.57 305.869C155.543 307.102 155.529 308.337 155.529 309.576V309.728C155.529 309.993 155.727 310.209 155.973 310.209C156.217 310.209 156.415 309.994 156.415 309.728V309.576C156.415 308.345 156.429 307.116 156.456 305.892C156.462 305.627 156.268 305.407 156.024 305.401C155.775 305.387 155.576 305.604 155.57 305.869ZM174.218 234.687C174.005 234.558 173.735 234.639 173.614 234.869C173.028 235.991 172.456 237.121 171.897 238.261C171.781 238.495 171.864 238.786 172.08 238.911C172.146 238.949 172.217 238.967 172.288 238.967C172.447 238.967 172.6 238.874 172.679 238.713C173.235 237.58 173.804 236.458 174.386 235.342C174.505 235.111 174.431 234.819 174.218 234.687ZM165.754 253.794C165.526 253.699 165.269 253.819 165.18 254.066C164.745 255.266 164.324 256.474 163.917 257.689C163.834 257.938 163.953 258.214 164.182 258.304C164.232 258.323 164.283 258.333 164.334 258.333C164.515 258.333 164.685 258.213 164.75 258.017C165.155 256.809 165.573 255.609 166.005 254.417C166.094 254.169 165.98 253.891 165.754 253.794ZM163.105 357.484C162.874 357.568 162.748 357.84 162.826 358.091C163.206 359.313 163.599 360.528 164.005 361.735C164.071 361.929 164.241 362.049 164.422 362.049C164.473 362.049 164.524 362.04 164.574 362.02C164.804 361.93 164.922 361.654 164.839 361.404C164.434 360.205 164.043 358.999 163.666 357.784C163.589 357.534 163.338 357.401 163.105 357.484ZM381.743 189.698C381.592 189.907 381.626 190.209 381.819 190.371C382.751 191.158 383.673 191.959 384.586 192.772C384.668 192.845 384.768 192.88 384.867 192.88C384.996 192.88 385.122 192.821 385.21 192.705C385.365 192.5 385.339 192.198 385.149 192.03C384.231 191.212 383.302 190.407 382.365 189.615C382.171 189.454 381.894 189.488 381.743 189.698ZM432.847 277.294C432.608 277.349 432.455 277.604 432.506 277.863C432.751 279.111 432.984 280.366 433.203 281.626C433.243 281.856 433.428 282.017 433.637 282.017C433.665 282.017 433.693 282.013 433.72 282.008C433.961 281.959 434.119 281.709 434.074 281.448C433.854 280.181 433.621 278.919 433.374 277.662C433.32 277.404 433.087 277.236 432.847 277.294ZM432.115 345.318C432.15 345.328 432.184 345.331 432.218 345.331C432.419 345.331 432.601 345.183 432.649 344.963C432.924 343.711 433.185 342.456 433.431 341.195C433.481 340.935 433.329 340.681 433.089 340.626C432.849 340.578 432.615 340.738 432.564 340.997C432.32 342.25 432.06 343.498 431.788 344.74C431.73 344.997 431.877 345.256 432.115 345.318ZM434.074 334.952C434.099 334.956 434.124 334.958 434.147 334.958C434.359 334.958 434.547 334.791 434.584 334.557C434.779 333.289 434.957 332.017 435.121 330.74C435.155 330.477 434.986 330.235 434.743 330.198C434.508 330.168 434.276 330.345 434.243 330.607C434.08 331.876 433.902 333.14 433.709 334.4C433.67 334.662 433.832 334.908 434.074 334.952ZM430.991 267.367C430.922 267.112 430.675 266.966 430.442 267.038C430.206 267.111 430.072 267.377 430.139 267.633C430.466 268.859 430.778 270.093 431.077 271.331C431.128 271.548 431.307 271.69 431.505 271.69C431.542 271.69 431.58 271.685 431.617 271.675C431.853 271.608 431.995 271.345 431.933 271.089C431.633 269.842 431.319 268.602 430.991 267.367ZM429.488 355.507C429.532 355.523 429.577 355.529 429.621 355.529C429.81 355.529 429.984 355.398 430.043 355.193C430.4 353.967 430.74 352.735 431.068 351.496C431.135 351.24 430.999 350.976 430.764 350.902C430.526 350.824 430.283 350.977 430.216 351.231C429.891 352.462 429.552 353.687 429.199 354.906C429.125 355.159 429.255 355.428 429.488 355.507ZM434.581 287.705C434.338 287.742 434.17 287.985 434.204 288.247C434.368 289.51 434.519 290.779 434.655 292.052C434.682 292.297 434.873 292.477 435.094 292.477C435.111 292.477 435.129 292.476 435.146 292.473C435.39 292.443 435.563 292.205 435.536 291.942C435.399 290.661 435.247 289.384 435.081 288.113C435.049 287.85 434.827 287.663 434.581 287.705ZM373.811 183.504C373.675 183.724 373.729 184.022 373.932 184.17C374.912 184.886 375.885 185.615 376.848 186.357C376.925 186.417 377.016 186.446 377.104 186.446C377.242 186.446 377.379 186.376 377.465 186.245C377.607 186.029 377.561 185.729 377.362 185.576C376.392 184.829 375.415 184.096 374.427 183.375C374.224 183.228 373.95 183.284 373.811 183.504ZM421.199 242.078C421.267 242.078 421.334 242.061 421.398 242.027C421.617 241.909 421.704 241.619 421.595 241.383C421.063 240.235 420.517 239.096 419.958 237.965C419.842 237.731 419.57 237.644 419.358 237.768C419.142 237.893 419.061 238.184 419.175 238.418C419.73 239.541 420.273 240.673 420.803 241.814C420.881 241.982 421.037 242.078 421.199 242.078ZM435.641 298.221C435.398 298.24 435.213 298.47 435.231 298.734C435.314 300.006 435.384 301.283 435.437 302.563C435.447 302.821 435.643 303.021 435.88 303.021C435.886 303.021 435.893 303.021 435.9 303.021C436.144 303.009 436.333 302.785 436.322 302.52C436.269 301.231 436.199 299.945 436.116 298.665C436.097 298.401 435.868 298.199 435.641 298.221ZM425.267 251.669C425.323 251.669 425.382 251.657 425.437 251.632C425.662 251.53 425.769 251.25 425.674 251.004C425.218 249.82 424.748 248.642 424.264 247.472C424.164 247.229 423.901 247.122 423.679 247.23C423.457 247.339 423.356 247.622 423.457 247.864C423.937 249.026 424.404 250.196 424.859 251.373C424.93 251.558 425.094 251.669 425.267 251.669ZM366.102 177.745C365.891 177.613 365.619 177.692 365.497 177.92C365.374 178.149 365.448 178.443 365.66 178.576C366.684 179.217 367.702 179.87 368.71 180.539C368.781 180.586 368.861 180.609 368.94 180.609C369.09 180.609 369.235 180.527 369.318 180.38C369.446 180.153 369.38 179.858 369.171 179.719C368.156 179.048 367.133 178.389 366.102 177.745ZM422.261 375.215C422.324 375.247 422.389 375.262 422.452 375.262C422.617 375.262 422.775 375.162 422.852 374.99C423.365 373.825 423.864 372.655 424.351 371.475C424.45 371.233 424.35 370.949 424.127 370.841C423.903 370.735 423.642 370.842 423.541 371.083C423.058 372.256 422.563 373.418 422.052 374.575C421.947 374.814 422.042 375.1 422.261 375.215ZM426.194 365.501C426.247 365.524 426.302 365.534 426.357 365.534C426.534 365.534 426.7 365.419 426.768 365.23C427.205 364.029 427.628 362.823 428.035 361.608C428.119 361.359 428.001 361.085 427.771 360.993C427.54 360.904 427.286 361.032 427.203 361.28C426.797 362.487 426.379 363.686 425.945 364.877C425.854 365.125 425.967 365.404 426.194 365.501ZM435.249 320.118C435.168 321.397 435.072 322.672 434.961 323.941C434.938 324.205 435.117 324.44 435.361 324.464C435.375 324.467 435.389 324.467 435.404 324.467C435.629 324.467 435.822 324.28 435.844 324.033C435.956 322.754 436.053 321.471 436.135 320.184C436.151 319.92 435.966 319.691 435.723 319.673C435.477 319.66 435.266 319.854 435.249 320.118ZM428.708 261.553C428.754 261.553 428.803 261.545 428.85 261.528C429.082 261.443 429.207 261.171 429.127 260.92C428.746 259.699 428.352 258.484 427.944 257.278C427.86 257.029 427.607 256.902 427.375 256.993C427.145 257.084 427.027 257.36 427.111 257.608C427.517 258.808 427.909 260.014 428.288 261.229C428.351 261.427 428.523 261.553 428.708 261.553ZM290.898 157.579C290.654 157.589 290.462 157.811 290.471 158.076C290.479 158.335 290.675 158.539 290.913 158.539C290.919 158.539 290.924 158.539 290.929 158.539C292.106 158.493 293.285 158.463 294.468 158.449C294.713 158.446 294.909 158.23 294.907 157.965C294.904 157.7 294.716 157.53 294.46 157.49C293.268 157.503 292.082 157.533 290.898 157.579ZM436.426 313.437C436.456 312.154 436.47 310.868 436.47 309.578V309.276C436.47 309.011 436.272 308.796 436.026 308.796C435.781 308.796 435.584 309.01 435.584 309.276V309.578C435.584 310.86 435.569 312.139 435.54 313.413C435.534 313.678 435.728 313.899 435.971 313.905C435.975 313.905 435.979 313.905 435.982 313.905C436.223 313.905 436.42 313.697 436.426 313.437ZM310.476 158.278C310.237 158.259 310.015 158.442 309.991 158.707C309.966 158.97 310.142 159.205 310.386 159.233C311.563 159.363 312.736 159.51 313.906 159.672C313.925 159.675 313.944 159.676 313.963 159.676C314.181 159.676 314.372 159.499 314.401 159.257C314.432 158.994 314.261 158.754 314.018 158.719C312.842 158.557 311.661 158.409 310.476 158.278ZM300.698 157.563C300.693 157.563 300.688 157.563 300.683 157.563C300.445 157.563 300.247 157.768 300.241 158.027C300.233 158.292 300.425 158.514 300.669 158.522C301.853 158.564 303.033 158.623 304.209 158.696C304.218 158.696 304.226 158.697 304.234 158.697C304.468 158.697 304.663 158.5 304.677 158.245C304.691 157.981 304.505 157.754 304.261 157.739C303.076 157.663 301.888 157.606 300.698 157.563ZM320.186 159.726C319.95 159.68 319.716 159.857 319.675 160.117C319.632 160.378 319.794 160.627 320.036 160.672C321.202 160.89 322.363 161.126 323.52 161.376C323.549 161.382 323.577 161.386 323.607 161.386C323.814 161.386 323.998 161.228 324.041 161C324.09 160.741 323.933 160.488 323.693 160.436C322.529 160.183 321.361 159.947 320.186 159.726ZM357.43 172.757C357.213 172.643 356.946 172.74 356.838 172.979C356.731 173.217 356.822 173.504 357.042 173.62C358.107 174.183 359.165 174.758 360.215 175.348C360.28 175.384 360.35 175.401 360.419 175.401C360.579 175.401 360.733 175.308 360.811 175.143C360.925 174.908 360.84 174.619 360.622 174.496C359.566 173.901 358.502 173.322 357.43 172.757ZM348.451 168.438C348.227 168.34 347.965 168.457 347.874 168.704C347.782 168.949 347.892 169.229 348.12 169.328C349.219 169.809 350.312 170.302 351.397 170.812C351.455 170.839 351.515 170.851 351.574 170.851C351.745 170.851 351.909 170.742 351.981 170.562C352.078 170.319 351.975 170.037 351.75 169.931C350.658 169.418 349.558 168.92 348.451 168.438ZM339.209 164.812C338.978 164.731 338.727 164.869 338.652 165.121C338.576 165.373 338.704 165.644 338.937 165.725C340.066 166.12 341.189 166.531 342.307 166.956C342.355 166.974 342.405 166.983 342.454 166.983C342.637 166.983 342.808 166.86 342.872 166.662C342.953 166.412 342.832 166.139 342.601 166.05C341.476 165.622 340.347 165.209 339.209 164.812ZM268.003 314.969C267.943 313.336 267.88 311.7 267.807 310.062C267.777 309.392 267.744 308.72 267.713 308.05C267.647 306.66 267.576 305.27 267.499 303.878C267.496 303.824 267.492 303.77 267.489 303.716C266.979 294.618 266.208 285.444 264.923 276.167C264.377 271.437 263.215 267.036 261.631 262.777L261.888 321.974C261.897 324.19 263.569 325.991 265.616 325.991C266.673 325.991 267.626 325.503 268.306 324.729C268.232 321.881 268.148 319.028 268.049 316.167C268.034 315.767 268.017 315.368 268.003 314.969ZM269.567 364.025C269.53 363.376 269.49 362.728 269.455 362.079C269.385 360.748 269.325 359.415 269.265 358.081C269.236 357.435 269.205 356.788 269.178 356.142C269.121 354.754 269.069 353.365 269.02 351.976C269.001 351.429 268.981 350.883 268.964 350.336C268.913 348.799 268.865 347.263 268.822 345.723C268.815 345.473 268.808 345.222 268.801 344.972C268.629 338.711 268.501 332.424 268.341 326.11C267.568 326.707 266.63 327.068 265.615 327.068C263.023 327.068 260.905 324.785 260.892 321.978L260.626 260.231C260.09 258.943 259.526 257.663 258.92 256.391C258.1 255.63 257.254 254.919 256.394 254.245L256.041 258.788C255.928 260.243 254.592 261.253 253.311 260.794C252.524 260.51 251.782 260.087 250.927 259.435C247.417 256.752 244.164 253.675 241.238 250.268C240.677 249.614 240.397 248.755 240.283 247.801C238.514 247.752 236.753 247.934 235.018 248.367C234.898 248.462 234.781 248.561 234.675 248.674C245.158 257.362 249.009 272.099 249.009 284.781C250.997 314.383 249.757 343.985 248.639 373.588C255.865 374.11 263.033 371.654 269.805 368.046V368.045C269.718 366.706 269.644 365.365 269.567 364.025Z" fill="#0984E3"/>
</g>
<defs>
<clipPath id="clip0_14_446">
<rect width="592" height="641" fill="white" transform="translate(0 0.502502)"/>
</clipPath>
</defs>
</svg>
