<svg width="143" height="30" viewBox="0 0 143 30" fill="none" xmlns="http://www.w3.org/2000/svg">
<path d="M1.4375 5.57812H4.99219C6.51302 5.57812 7.66406 5.79167 8.44531 6.21875C9.22656 6.64583 9.61719 7.39583 9.61719 8.46875C9.61719 8.90104 9.54688 9.29167 9.40625 9.64062C9.27083 9.98958 9.07292 10.276 8.8125 10.5C8.55208 10.724 8.23438 10.8698 7.85938 10.9375V11.0156C8.23958 11.0938 8.58333 11.2292 8.89062 11.4219C9.19792 11.6094 9.44271 11.8854 9.625 12.25C9.8125 12.6094 9.90625 13.0885 9.90625 13.6875C9.90625 14.3802 9.73698 14.974 9.39844 15.4688C9.0599 15.9635 8.57552 16.3438 7.94531 16.6094C7.32031 16.8698 6.57552 17 5.71094 17H1.4375V5.57812ZM3.85938 10.1016H5.26562C5.96875 10.1016 6.45573 9.99219 6.72656 9.77344C6.9974 9.54948 7.13281 9.22135 7.13281 8.78906C7.13281 8.35156 6.97135 8.03906 6.64844 7.85156C6.33073 7.65885 5.82552 7.5625 5.13281 7.5625H3.85938V10.1016ZM3.85938 12.0234V15H5.4375C6.16667 15 6.67448 14.8594 6.96094 14.5781C7.2474 14.2969 7.39062 13.9193 7.39062 13.4453C7.39062 13.1641 7.32812 12.9167 7.20312 12.7031C7.07812 12.4896 6.86719 12.3229 6.57031 12.2031C6.27865 12.0833 5.875 12.0234 5.35938 12.0234H3.85938ZM14.3828 17H12V4.84375H14.3828V17ZM24.8281 12.6172C24.8281 13.3464 24.7292 13.9922 24.5312 14.5547C24.3385 15.1172 24.0547 15.5938 23.6797 15.9844C23.3099 16.3698 22.862 16.6615 22.3359 16.8594C21.8151 17.0573 21.2266 17.1562 20.5703 17.1562C19.9557 17.1562 19.3906 17.0573 18.875 16.8594C18.3646 16.6615 17.9193 16.3698 17.5391 15.9844C17.1641 15.5938 16.8724 15.1172 16.6641 14.5547C16.4609 13.9922 16.3594 13.3464 16.3594 12.6172C16.3594 11.6484 16.5312 10.8281 16.875 10.1562C17.2188 9.48438 17.7083 8.97396 18.3438 8.625C18.9792 8.27604 19.737 8.10156 20.6172 8.10156C21.4349 8.10156 22.1589 8.27604 22.7891 8.625C23.4245 8.97396 23.9219 9.48438 24.2812 10.1562C24.6458 10.8281 24.8281 11.6484 24.8281 12.6172ZM18.7891 12.6172C18.7891 13.1901 18.8516 13.6719 18.9766 14.0625C19.1016 14.4531 19.2969 14.7474 19.5625 14.9453C19.8281 15.1432 20.1745 15.2422 20.6016 15.2422C21.0234 15.2422 21.3646 15.1432 21.625 14.9453C21.8906 14.7474 22.0833 14.4531 22.2031 14.0625C22.3281 13.6719 22.3906 13.1901 22.3906 12.6172C22.3906 12.0391 22.3281 11.5599 22.2031 11.1797C22.0833 10.7943 21.8906 10.5052 21.625 10.3125C21.3594 10.1198 21.013 10.0234 20.5859 10.0234C19.9557 10.0234 19.4974 10.2396 19.2109 10.6719C18.9297 11.1042 18.7891 11.7526 18.7891 12.6172ZM34.7344 12.6172C34.7344 13.3464 34.6354 13.9922 34.4375 14.5547C34.2448 15.1172 33.9609 15.5938 33.5859 15.9844C33.2161 16.3698 32.7682 16.6615 32.2422 16.8594C31.7214 17.0573 31.1328 17.1562 30.4766 17.1562C29.862 17.1562 29.2969 17.0573 28.7812 16.8594C28.2708 16.6615 27.8255 16.3698 27.4453 15.9844C27.0703 15.5938 26.7786 15.1172 26.5703 14.5547C26.3672 13.9922 26.2656 13.3464 26.2656 12.6172C26.2656 11.6484 26.4375 10.8281 26.7812 10.1562C27.125 9.48438 27.6146 8.97396 28.25 8.625C28.8854 8.27604 29.6432 8.10156 30.5234 8.10156C31.3411 8.10156 32.0651 8.27604 32.6953 8.625C33.3307 8.97396 33.8281 9.48438 34.1875 10.1562C34.5521 10.8281 34.7344 11.6484 34.7344 12.6172ZM28.6953 12.6172C28.6953 13.1901 28.7578 13.6719 28.8828 14.0625C29.0078 14.4531 29.2031 14.7474 29.4688 14.9453C29.7344 15.1432 30.0807 15.2422 30.5078 15.2422C30.9297 15.2422 31.2708 15.1432 31.5312 14.9453C31.7969 14.7474 31.9896 14.4531 32.1094 14.0625C32.2344 13.6719 32.2969 13.1901 32.2969 12.6172C32.2969 12.0391 32.2344 11.5599 32.1094 11.1797C31.9896 10.7943 31.7969 10.5052 31.5312 10.3125C31.2656 10.1198 30.9193 10.0234 30.4922 10.0234C29.862 10.0234 29.4036 10.2396 29.1172 10.6719C28.8359 11.1042 28.6953 11.7526 28.6953 12.6172ZM39.4688 17.1562C38.4948 17.1562 37.7005 16.776 37.0859 16.0156C36.4766 15.25 36.1719 14.1276 36.1719 12.6484C36.1719 11.1536 36.4818 10.0234 37.1016 9.25781C37.7214 8.48698 38.5312 8.10156 39.5312 8.10156C39.9479 8.10156 40.3151 8.15885 40.6328 8.27344C40.9505 8.38802 41.224 8.54167 41.4531 8.73438C41.6875 8.92708 41.8854 9.14323 42.0469 9.38281H42.125C42.0938 9.21615 42.0547 8.97135 42.0078 8.64844C41.9661 8.32031 41.9453 7.98438 41.9453 7.64062V4.84375H44.3359V17H42.5078L42.0469 15.8672H41.9453C41.7943 16.1068 41.6042 16.3255 41.375 16.5234C41.151 16.7161 40.8828 16.8698 40.5703 16.9844C40.2578 17.099 39.8906 17.1562 39.4688 17.1562ZM40.3047 15.2578C40.9557 15.2578 41.4141 15.0651 41.6797 14.6797C41.9505 14.2891 42.0938 13.7031 42.1094 12.9219V12.6641C42.1094 11.8151 41.9792 11.1667 41.7188 10.7188C41.4583 10.2656 40.974 10.0391 40.2656 10.0391C39.7396 10.0391 39.3281 10.2656 39.0312 10.7188C38.7344 11.1719 38.5859 11.8255 38.5859 12.6797C38.5859 13.5339 38.7344 14.1771 39.0312 14.6094C39.3333 15.0417 39.7578 15.2578 40.3047 15.2578Z" fill="#750000"/>
<path d="M78.9141 11.1797C78.9141 12.4661 78.6667 13.5417 78.1719 14.4062C77.6823 15.2656 76.9714 15.9141 76.0391 16.3516C75.1068 16.7839 73.9844 17 72.6719 17H69.4375V5.57812H73.0234C74.2214 5.57812 75.2604 5.79167 76.1406 6.21875C77.0208 6.64062 77.7031 7.26823 78.1875 8.10156C78.6719 8.92969 78.9141 9.95573 78.9141 11.1797ZM76.3984 11.2422C76.3984 10.3984 76.2734 9.70573 76.0234 9.16406C75.7786 8.61719 75.4141 8.21354 74.9297 7.95312C74.4505 7.69271 73.8568 7.5625 73.1484 7.5625H71.8594V15H72.8984C74.0807 15 74.9583 14.6849 75.5312 14.0547C76.1094 13.4245 76.3984 12.487 76.3984 11.2422ZM89.0312 12.6172C89.0312 13.3464 88.9323 13.9922 88.7344 14.5547C88.5417 15.1172 88.2578 15.5938 87.8828 15.9844C87.513 16.3698 87.0651 16.6615 86.5391 16.8594C86.0182 17.0573 85.4297 17.1562 84.7734 17.1562C84.1589 17.1562 83.5938 17.0573 83.0781 16.8594C82.5677 16.6615 82.1224 16.3698 81.7422 15.9844C81.3672 15.5938 81.0755 15.1172 80.8672 14.5547C80.6641 13.9922 80.5625 13.3464 80.5625 12.6172C80.5625 11.6484 80.7344 10.8281 81.0781 10.1562C81.4219 9.48438 81.9115 8.97396 82.5469 8.625C83.1823 8.27604 83.9401 8.10156 84.8203 8.10156C85.638 8.10156 86.362 8.27604 86.9922 8.625C87.6276 8.97396 88.125 9.48438 88.4844 10.1562C88.849 10.8281 89.0312 11.6484 89.0312 12.6172ZM82.9922 12.6172C82.9922 13.1901 83.0547 13.6719 83.1797 14.0625C83.3047 14.4531 83.5 14.7474 83.7656 14.9453C84.0312 15.1432 84.3776 15.2422 84.8047 15.2422C85.2266 15.2422 85.5677 15.1432 85.8281 14.9453C86.0938 14.7474 86.2865 14.4531 86.4062 14.0625C86.5312 13.6719 86.5938 13.1901 86.5938 12.6172C86.5938 12.0391 86.5312 11.5599 86.4062 11.1797C86.2865 10.7943 86.0938 10.5052 85.8281 10.3125C85.5625 10.1198 85.2161 10.0234 84.7891 10.0234C84.1589 10.0234 83.7005 10.2396 83.4141 10.6719C83.1328 11.1042 82.9922 11.7526 82.9922 12.6172ZM95.9609 8.10156C96.8932 8.10156 97.6432 8.35677 98.2109 8.86719C98.7786 9.3724 99.0625 10.1849 99.0625 11.3047V17H96.6797V11.8984C96.6797 11.2734 96.5651 10.8021 96.3359 10.4844C96.112 10.1667 95.7578 10.0078 95.2734 10.0078C94.5443 10.0078 94.0469 10.2552 93.7812 10.75C93.5156 11.2448 93.3828 11.9583 93.3828 12.8906V17H91V8.26562H92.8203L93.1406 9.38281H93.2734C93.4609 9.08073 93.6927 8.83594 93.9688 8.64844C94.25 8.46094 94.5599 8.32292 94.8984 8.23438C95.2422 8.14583 95.5964 8.10156 95.9609 8.10156ZM105.094 8.08594C106.266 8.08594 107.164 8.34115 107.789 8.85156C108.414 9.36198 108.727 10.138 108.727 11.1797V17H107.062L106.602 15.8125H106.539C106.289 16.125 106.034 16.3802 105.773 16.5781C105.513 16.776 105.214 16.9219 104.875 17.0156C104.536 17.1094 104.125 17.1562 103.641 17.1562C103.125 17.1562 102.661 17.0573 102.25 16.8594C101.844 16.6615 101.523 16.3594 101.289 15.9531C101.055 15.5417 100.938 15.0208 100.938 14.3906C100.938 13.4635 101.263 12.7812 101.914 12.3438C102.565 11.901 103.542 11.6562 104.844 11.6094L106.359 11.5625V11.1797C106.359 10.7214 106.24 10.3854 106 10.1719C105.76 9.95833 105.427 9.85156 105 9.85156C104.578 9.85156 104.164 9.91146 103.758 10.0312C103.352 10.151 102.945 10.3021 102.539 10.4844L101.75 8.875C102.214 8.63021 102.732 8.4375 103.305 8.29688C103.883 8.15625 104.479 8.08594 105.094 8.08594ZM106.359 12.9531L105.438 12.9844C104.667 13.0052 104.13 13.1432 103.828 13.3984C103.531 13.6536 103.383 13.9896 103.383 14.4062C103.383 14.7708 103.49 15.0312 103.703 15.1875C103.917 15.3385 104.195 15.4141 104.539 15.4141C105.049 15.4141 105.479 15.263 105.828 14.9609C106.182 14.6589 106.359 14.2292 106.359 13.6719V12.9531ZM114.867 15.2578C115.128 15.2578 115.38 15.2318 115.625 15.1797C115.875 15.1276 116.122 15.0625 116.367 14.9844V16.7578C116.112 16.8724 115.794 16.9661 115.414 17.0391C115.039 17.1172 114.628 17.1562 114.18 17.1562C113.659 17.1562 113.19 17.0729 112.773 16.9062C112.362 16.7344 112.036 16.4401 111.797 16.0234C111.562 15.6016 111.445 15.0156 111.445 14.2656V10.0547H110.305V9.04688L111.617 8.25L112.305 6.40625H113.828V8.26562H116.273V10.0547H113.828V14.2656C113.828 14.599 113.922 14.849 114.109 15.0156C114.302 15.1771 114.555 15.2578 114.867 15.2578ZM120.523 8.26562V17H118.141V8.26562H120.523ZM119.336 4.84375C119.69 4.84375 119.995 4.92708 120.25 5.09375C120.505 5.25521 120.633 5.5599 120.633 6.00781C120.633 6.45052 120.505 6.75781 120.25 6.92969C119.995 7.09635 119.69 7.17969 119.336 7.17969C118.977 7.17969 118.669 7.09635 118.414 6.92969C118.164 6.75781 118.039 6.45052 118.039 6.00781C118.039 5.5599 118.164 5.25521 118.414 5.09375C118.669 4.92708 118.977 4.84375 119.336 4.84375ZM130.969 12.6172C130.969 13.3464 130.87 13.9922 130.672 14.5547C130.479 15.1172 130.195 15.5938 129.82 15.9844C129.451 16.3698 129.003 16.6615 128.477 16.8594C127.956 17.0573 127.367 17.1562 126.711 17.1562C126.096 17.1562 125.531 17.0573 125.016 16.8594C124.505 16.6615 124.06 16.3698 123.68 15.9844C123.305 15.5938 123.013 15.1172 122.805 14.5547C122.602 13.9922 122.5 13.3464 122.5 12.6172C122.5 11.6484 122.672 10.8281 123.016 10.1562C123.359 9.48438 123.849 8.97396 124.484 8.625C125.12 8.27604 125.878 8.10156 126.758 8.10156C127.576 8.10156 128.299 8.27604 128.93 8.625C129.565 8.97396 130.062 9.48438 130.422 10.1562C130.786 10.8281 130.969 11.6484 130.969 12.6172ZM124.93 12.6172C124.93 13.1901 124.992 13.6719 125.117 14.0625C125.242 14.4531 125.438 14.7474 125.703 14.9453C125.969 15.1432 126.315 15.2422 126.742 15.2422C127.164 15.2422 127.505 15.1432 127.766 14.9453C128.031 14.7474 128.224 14.4531 128.344 14.0625C128.469 13.6719 128.531 13.1901 128.531 12.6172C128.531 12.0391 128.469 11.5599 128.344 11.1797C128.224 10.7943 128.031 10.5052 127.766 10.3125C127.5 10.1198 127.154 10.0234 126.727 10.0234C126.096 10.0234 125.638 10.2396 125.352 10.6719C125.07 11.1042 124.93 11.7526 124.93 12.6172ZM137.898 8.10156C138.831 8.10156 139.581 8.35677 140.148 8.86719C140.716 9.3724 141 10.1849 141 11.3047V17H138.617V11.8984C138.617 11.2734 138.503 10.8021 138.273 10.4844C138.049 10.1667 137.695 10.0078 137.211 10.0078C136.482 10.0078 135.984 10.2552 135.719 10.75C135.453 11.2448 135.32 11.9583 135.32 12.8906V17H132.938V8.26562H134.758L135.078 9.38281H135.211C135.398 9.08073 135.63 8.83594 135.906 8.64844C136.188 8.46094 136.497 8.32292 136.836 8.23438C137.18 8.14583 137.534 8.10156 137.898 8.10156Z" fill="#A30000"/>
<g filter="url(#filter0_d_39_369)">
<path d="M64.8448 13.6552C64.8448 17.9877 61.3325 21.5 57 21.5C52.6675 21.5 49.1552 17.9877 49.1552 13.6552C49.1552 12.2461 49.6417 10.7139 50.4063 9.18482C51.1685 7.66046 52.1901 6.17236 53.2208 4.86064C54.2503 3.55037 55.281 2.42575 56.0549 1.62841C56.4416 1.23004 56.7634 0.914095 56.9879 0.69833C56.992 0.694421 56.996 0.690545 57 0.686703C57.004 0.690545 57.0081 0.694421 57.0121 0.69833C57.2366 0.914095 57.5584 1.23004 57.9451 1.62841C58.719 2.42575 59.7498 3.55037 60.7793 4.86064C61.8099 6.17236 62.8316 7.66046 63.5938 9.18482C64.3583 10.7139 64.8448 12.2461 64.8448 13.6552Z" fill="#A30000" stroke="#A30000"/>
<path d="M57.3932 21.4843V21.4624V21.4082V21.3539V21.2995V21.2451V21.1905V21.1359V21.0813V21.0265V20.9717V20.9168V20.8619V20.8068V20.7517V20.6965V20.6413V20.586V20.5306V20.4752V20.4197V20.3641V20.3084V20.2527V20.197V20.1411V20.0852V20.0293V19.9733V19.9172V19.8611V19.8049V19.7486V19.6923V19.636V19.5796V19.5231V19.4666V19.41V19.3534V19.2967V19.24V19.1832V19.1264V19.0695V19.0126V18.9557V18.8986V18.8416V18.7845V18.7273V18.6702V18.6129V18.5557V18.4984V18.441V18.3836V18.3262V18.2687V18.2112V18.1537V18.0961V18.0385V17.9809V17.9232V17.8655V17.8077V17.75V17.6922V17.6344V17.5765V17.5186V17.4607V17.4028V17.3448V17.2868V17.2288V17.1708V17.1127V17.0546V16.9965V16.9384V16.8803V16.8221V16.7639V16.7057V16.6475V16.5893V16.531V16.4728V16.4145V16.3562V16.2979V16.2396V16.1813V16.123V16.0646V16.0063V15.9479V15.8895V15.8312V15.7728V15.7144V15.656V15.5977V15.5393V15.4809V15.4225V15.3641V15.3057V15.2473V15.1889V15.1305V15.0722V15.0138V14.9554V14.897V14.8387V14.7803V14.722V14.6636V14.6053V14.547V14.4887V14.4304V14.3721V14.3139V14.2556V14.1974V14.1391V14.0809V14.0227V13.9646V13.9064V13.8483V13.7901V13.732V13.674V13.6159V13.5579V13.4999V13.4419V13.3839V13.326V13.2681V13.2102V13.1524V13.0946V13.0368V12.979V12.9213V12.8636V12.8059V12.7483V12.6907V12.6331V12.5756V12.5181V12.4607V12.4032V12.3459V12.2885V12.2312V12.174V12.1168V12.0596V12.0024V11.9454V11.8883V11.8313V11.7744V11.7175V11.6606V11.6038V11.547V11.4903V11.4337V11.3771V11.3205V11.264V11.2075V11.1512V11.0948V11.0385V10.9823V10.9261V10.87V10.814V10.758V10.702V10.6461V10.5903V10.5346V10.4789V10.4233V10.3677V10.3122V10.2568V10.2014V10.1461V10.0909V10.0358V9.98067V9.92565V9.87071V9.81584V9.76104V9.70631V9.65166V9.59709V9.54259V9.48816V9.43382V9.37955V9.32536V9.27125V9.21722V9.16327V9.1094V9.05562V9.00192V8.9483V8.89477V8.84132V8.78796V8.73469V8.68151V8.62841V8.5754V8.52248V8.46966V8.41692V8.36428V8.31173V8.25927V8.20691V8.15464V8.10247V8.0504V7.99842V7.94654V7.89476V7.84308V7.79151V7.74003V7.68865V7.63738V7.58621V7.53514V7.48418V7.43333V7.38258V7.33194V7.2814V7.23098V7.18066V7.13046V7.08036V7.03038V6.98051V6.93075V6.88111V6.83158V6.78216V6.73287V6.68369V6.63462V6.58568V6.53685V6.48815V6.43956V6.3911V6.34276V6.29454V6.24644V6.19847V6.15063V6.10291V6.05531V6.00785V5.96051V5.9133V5.86622V5.81927V5.77245V5.72577V5.67921V5.63279V5.5865V5.54035V5.49434V5.44846V5.40271V5.35711V5.31164V5.26631V5.22112V5.17608V5.13117V5.08641V5.04179V4.99731V4.95298V4.90879V4.86475V4.82086V4.77711V4.73351V4.69006V4.64676V4.60361V4.56061V4.51777V4.47507V4.43253V4.39015V4.34792V4.30584V4.26392V4.22216V4.18056V4.13911V4.09783V4.0567V4.01573V3.97493V3.93429V3.89381V3.8535V3.81335V3.77336V3.73355V3.6939V3.65441V3.6151V3.57595V3.53697V3.49817V3.45953V3.42107V3.38278V3.34467V3.30673V3.26896V3.23137V3.19395V3.15672V3.11966V3.08278V3.04608V3.00956V2.97322V2.93706V2.90109V2.8653V2.82969V2.79427V2.75903V2.72398V2.68911V2.65444V2.61995V2.58565V2.55154V2.51762V2.4839V2.45036V2.41702V2.38387V2.35092V2.31816V2.2856V2.25324V2.22107V2.1891V2.15733V2.12576V2.09439V2.06322V2.03225V2.00148V1.97092V1.94057V1.91041V1.88047V1.85073V1.82119V1.79187V1.76275V1.73384V1.70515V1.67666V1.64839V1.62032V1.59248V1.56484V1.53742V1.51021V1.48322V1.45645V1.4299V1.40356V1.37744V1.35155V1.32587V1.30041V1.27518V1.25017V1.22538V1.20082V1.17677C57.5289 1.31231 57.678 1.46328 57.8383 1.62841C58.6122 2.42575 59.6429 3.55037 60.6724 4.86064C61.7031 6.17236 62.7247 7.66046 63.4869 9.18482C64.2515 10.7139 64.738 12.2461 64.738 13.6552C64.738 17.8198 61.4927 21.2265 57.3932 21.4843Z" fill="#A30000" stroke="#A30000" stroke-linejoin="round"/>
<line x1="57.3932" y1="0.463165" x2="57.3932" y2="21.5368" stroke="#A30000"/>
<path d="M60.477 12.2643H58.3908V10.1781H55.6092V12.2643H53.523V15.046H55.6092V17.1322H58.3908V15.046H60.477V12.2643Z" fill="white"/>
</g>
<defs>
<filter id="filter0_d_39_369" x="42" y="0" width="30" height="30" filterUnits="userSpaceOnUse" color-interpolation-filters="sRGB">
<feFlood flood-opacity="0" result="BackgroundImageFix"/>
<feColorMatrix in="SourceAlpha" type="matrix" values="0 0 0 0 0 0 0 0 0 0 0 0 0 0 0 0 0 0 127 0" result="hardAlpha"/>
<feOffset dy="4"/>
<feGaussianBlur stdDeviation="2"/>
<feComposite in2="hardAlpha" operator="out"/>
<feColorMatrix type="matrix" values="0 0 0 0 0.639216 0 0 0 0 0 0 0 0 0 0 0 0 0 0.25 0"/>
<feBlend mode="normal" in2="BackgroundImageFix" result="effect1_dropShadow_39_369"/>
<feBlend mode="normal" in="SourceGraphic" in2="effect1_dropShadow_39_369" result="shape"/>
</filter>
</defs>
</svg>
