<svg width="51" height="59" viewBox="0 0 51 59" fill="none" xmlns="http://www.w3.org/2000/svg">
<g clip-path="url(#clip0_38_321)" filter="url(#filter0_d_38_321)">
<path d="M43.9202 31.5065C43.9202 41.6666 35.6744 49.904 25.5019 49.904C15.3293 49.904 7.08357 41.6666 7.08357 31.5065C7.08357 28.179 8.2309 24.6082 9.98667 21.1006C11.7401 17.5976 14.0834 14.1909 16.4357 11.2003C18.7869 8.21121 21.1393 5.6476 22.9045 3.83097C23.7868 2.92295 24.5216 2.20229 25.0352 1.70922C25.2209 1.53102 25.3776 1.38258 25.5019 1.26578C25.6262 1.38258 25.7829 1.53102 25.9685 1.70922C26.4821 2.20229 27.217 2.92295 28.0992 3.83097C29.8644 5.6476 32.2168 8.21121 34.568 11.2003C36.9203 14.1909 39.2636 17.5976 41.0171 21.1006C42.7728 24.6082 43.9202 28.179 43.9202 31.5065Z" fill="white" stroke="#A30000"/>
<path d="M25.7598 49.8973V49.7976V49.6757V49.5537V49.4315V49.3091V49.1865V49.0637V48.9408V48.8177V48.6944V48.5709V48.4473V48.3234V48.1995V48.0753V47.951V47.8266V47.7019V47.5771V47.4522V47.3271V47.2018V47.0764V46.9509V46.8252V46.6993V46.5733V46.4471V46.3209V46.1944V46.0679V45.9411V45.8143V45.6873V45.5602V45.433V45.3056V45.1781V45.0505V44.9227V44.7949V44.6669V44.5388V44.4105V44.2822V44.1537V44.0252V43.8965V43.7677V43.6388V43.5098V43.3807V43.2515V43.1222V42.9928V42.8633V42.7337V42.604V42.4742V42.3444V42.2144V42.0844V41.9542V41.824V41.6937V41.5633V41.4329V41.3024V41.1718V41.0411V40.9103V40.7795V40.6486V40.5177V40.3866V40.2556V40.1244V39.9932V39.8619V39.7306V39.5992V39.4678V39.3363V39.2048V39.0732V38.9416V38.8099V38.6782V38.5465V38.4147V38.2829V38.151V38.0191V37.8872V37.7552V37.6232V37.4912V37.3592V37.2271V37.095V36.9629V36.8307V36.6986V36.5664V36.4343V36.3021V36.1699V36.0377V35.9054V35.7732V35.641V35.5087V35.3765V35.2443V35.1121V34.9798V34.8476V34.7154V34.5832V34.451V34.3188V34.1867V34.0545V33.9224V33.7903V33.6582V33.5261V33.3941V33.2621V33.1301V32.9982V32.8662V32.7344V32.6025V32.4707V32.3389V32.2072V32.0755V31.9438V31.8122V31.6806V31.5491V31.4177V31.2862V31.1549V31.0236V30.8923V30.7611V30.63V30.4989V30.3679V30.237V30.1061V29.9753V29.8446V29.7139V29.5834V29.4528V29.3224V29.1921V29.0618V28.9316V28.8015V28.6715V28.5415V28.4117V28.2819V28.1523V28.0227V27.8932V27.7638V27.6346V27.5054V27.3763V27.2473V27.1185V26.9897V26.8611V26.7325V26.6041V26.4758V26.3476V26.2195V26.0916V25.9637V25.836V25.7084V25.581V25.4536V25.3264V25.1994V25.0724V24.9456V24.8189V24.6924V24.566V24.4398V24.3137V24.1877V24.0619V23.9362V23.8107V23.6853V23.5601V23.435V23.3101V23.1854V23.0608V22.9364V22.8121V22.688V22.5641V22.4403V22.3167V22.1933V22.0701V21.947V21.8241V21.7014V21.5789V21.4565V21.3343V21.2123V21.0906V20.9689V20.8475V20.7263V20.6053V20.4844V20.3638V20.2433V20.1231V20.0031V19.8832V19.7636V19.6442V19.525V19.406V19.2872V19.1686V19.0502V18.9321V18.8142V18.6965V18.579V18.4617V18.3447V18.2279V18.1113V17.995V17.8788V17.763V17.6473V17.5319V17.4168V17.3018V17.1872V17.0727V16.9585V16.8446V16.7309V16.6174V16.5043V16.3913V16.2786V16.1662V16.0541V15.9422V15.8305V15.7191V15.608V15.4972V15.3866V15.2763V15.1663V15.0566V14.9471V14.8379V14.729V14.6203V14.512V14.4039V14.2962V14.1887V14.0815V13.9746V13.8679V13.7616V13.6556V13.5499V13.4444V13.3393V13.2345V13.13V13.0258V12.9219V12.8183V12.715V12.6121V12.5094V12.4071V12.3051V12.2034V12.102V12.001V11.9002V11.7998V11.6998V11.6V11.5006V11.4016V11.3028V11.2045V11.1064V11.0087V10.9113V10.8143V10.7176V10.6213V10.5253V10.4296V10.3344V10.2394V10.1449V10.0506V9.95679V9.86329V9.77016V9.67739V9.58499V9.49296V9.40129V9.31V9.21908V9.12853V9.03836V8.94857V8.85916V8.77012V8.68147V8.59321V8.50533V8.41784V8.33074V8.24403V8.15772V8.0718V7.98627V7.90114V7.81642V7.73209V7.64817V7.56465V7.48154V7.39884V7.31655V7.23467V7.1532V7.07215V6.99151V6.91129V6.8315V6.75212V6.67317V6.59464V6.51654V6.43887V6.36163V6.28482V6.20845V6.13251V6.057V5.98194V5.90731V5.83313V5.75939V5.6861V5.61325V5.54086V5.46891V5.39741V5.32637V5.25579V5.18566V5.11599V5.04678V4.97804V4.90976V4.84194V4.77459V4.70771V4.6413V4.57537V4.5099V4.44492V4.38041V4.31638V4.25283V4.18976V4.12718V4.06508V4.00348V3.94236V3.88173V3.82159V3.76195V3.70281V3.64416V3.58601V3.52837V3.47122V3.41459V3.35845V3.30283V3.24771V3.19311V3.13902V3.08544V3.03238V2.97984V2.92782V2.87632V2.82534V2.77489V2.72497V2.67557V2.6267V2.57837V2.53056V2.4833V2.43656V2.39037V2.34472V2.29961V2.25504V2.21102V2.16754V2.12462V2.08224V2.04041V1.99914V1.95843V1.91827V1.87867V1.83963V1.80115V1.76323V1.74127C26.2716 2.2333 26.9938 2.94243 27.8571 3.83097C29.6223 5.6476 31.9747 8.21121 34.3259 11.2003C36.6782 14.1909 39.0215 17.5976 40.7749 21.1006C42.5307 24.6082 43.678 28.179 43.678 31.5065C43.678 41.4996 35.7011 49.6327 25.7598 49.8973Z" fill="white" stroke="#A30000" stroke-linejoin="round"/>
<line x1="25.7598" y1="1.63232" x2="25.7598" y2="49.3551" stroke="white"/>
<path d="M33.3845 28.3569H28.6549V23.6326H22.3488V28.3569H17.6192V34.6561H22.3488V39.3804H28.6549V34.6561H33.3845V28.3569Z" fill="#A30000"/>
</g>
<defs>
<filter id="filter0_d_38_321" x="-3.43587" y="0.583496" width="57.8755" height="57.8204" filterUnits="userSpaceOnUse" color-interpolation-filters="sRGB">
<feFlood flood-opacity="0" result="BackgroundImageFix"/>
<feColorMatrix in="SourceAlpha" type="matrix" values="0 0 0 0 0 0 0 0 0 0 0 0 0 0 0 0 0 0 127 0" result="hardAlpha"/>
<feOffset dy="4"/>
<feGaussianBlur stdDeviation="2"/>
<feComposite in2="hardAlpha" operator="out"/>
<feColorMatrix type="matrix" values="0 0 0 0 0.639216 0 0 0 0 0 0 0 0 0 0 0 0 0 0.25 0"/>
<feBlend mode="normal" in2="BackgroundImageFix" result="effect1_dropShadow_38_321"/>
<feBlend mode="normal" in="SourceGraphic" in2="effect1_dropShadow_38_321" result="shape"/>
</filter>
<clipPath id="clip0_38_321">
<rect width="49.8755" height="49.8205" fill="white" transform="translate(0.564133 0.583496)"/>
</clipPath>
</defs>
</svg>
